<svg xmlns="http://www.w3.org/2000/svg" version="1.0" width="2801.000000pt" height="2584.000000pt" viewBox="0 0 2801.000000 2584.000000" preserveAspectRatio="xMidYMid meet">

<g transform="translate(0.000000,2584.000000) scale(0.100000,-0.100000)" fill="#5c7499" stroke="none">
<path d="M15825 25814 c-203 -28 -418 -93 -597 -179 l-67 -33 -130 44 c-193 65 -377 106 -616 135 -119 14 -589 20 -740 9 -601 -45 -1039 -151 -1452 -351 l-162 -78 -74 34 c-286 132 -678 187 -1102 154 -618 -49 -1574 -280 -2650 -641 -862 -289 -1364 -558 -1736 -930 -112 -112 -199 -217 -283 -341 l-58 -84 -131 -6 c-389 -18 -732 -148 -1222 -465 -305 -197 -554 -401 -861 -707 -241 -239 -382 -396 -821 -915 -193 -228 -390 -457 -437 -509 -48 -51 -197 -190 -331 -308 -135 -117 -309 -278 -388 -356 -481 -477 -733 -916 -829 -1442 -18 -100 -21 -160 -22 -360 l-1 -240 -126 -125 c-177 -175 -290 -325 -411 -545 -209 -381 -349 -819 -447 -1405 -94 -561 -128 -987 -118 -1485 8 -393 36 -658 107 -1030 16 -82 32 -170 35 -195 16 -108 79 -426 107 -540 179 -733 502 -1201 1008 -1459 157 -80 385 -156 531 -176 45 -7 46 -8 97 -95 268 -458 810 -892 1412 -1130 502 -198 975 -260 1387 -181 l92 18 33 -35 c106 -111 315 -262 488 -355 245 -131 594 -233 872 -253 51 -4 100 -8 108 -10 8 -1 65 -3 125 -3 l111 -1 12 -118 c29 -283 111 -559 247 -827 354 -701 1058 -1261 2048 -1629 501 -186 1077 -320 1622 -376 386 -40 735 -38 1090 5 579 70 1175 197 1795 382 140 41 260 77 266 80 6 2 27 -23 48 -56 138 -225 325 -417 551 -566 283 -188 581 -297 975 -356 207 -31 608 -32 862 -1 194 23 377 58 506 95 l82 24 54 -66 c29 -36 98 -114 153 -173 227 -240 273 -308 359 -523 105 -260 179 -561 289 -1175 144 -802 239 -1226 345 -1535 48 -141 190 -437 292 -609 384 -651 911 -1206 1433 -1512 275 -160 584 -265 860 -292 160 -15 431 -4 595 24 686 119 1219 566 1440 1209 76 221 110 446 110 724 0 340 -39 591 -180 1146 -134 527 -165 736 -250 1670 -45 498 -78 835 -85 881 l-6 32 73 7 c259 24 614 87 898 161 1080 280 2138 919 2761 1667 436 522 716 1092 818 1664 49 273 49 526 1 791 -11 59 -20 110 -20 113 0 3 39 30 86 59 521 318 921 833 1112 1432 168 527 197 1198 73 1689 -26 100 -72 237 -136 399 l-18 45 53 80 c139 214 233 494 259 775 12 127 -3 1652 -18 1875 -56 820 -180 1354 -432 1857 -244 489 -596 873 -1000 1092 l-86 46 -6 198 c-5 202 -24 340 -68 502 -157 580 -533 1125 -1149 1666 -167 147 -367 303 -695 544 -334 245 -383 284 -600 475 -501 440 -853 691 -1199 855 -335 159 -655 240 -947 240 l-96 0 -38 58 c-263 397 -691 680 -1190 787 -187 40 -289 50 -520 49 -303 0 -549 -34 -855 -119 -152 -42 -212 -64 -549 -200 -145 -58 -264 -105 -265 -103 -1 2 -17 44 -35 93 -251 680 -876 1153 -1728 1307 -151 27 -542 34 -698 12z m565 -1354 c438 -104 677 -352 606 -629 -9 -35 -43 -125 -75 -200 -68 -156 -81 -198 -81 -261 0 -171 229 -338 570 -416 107 -24 402 -30 555 -10 321 41 697 154 1173 351 278 114 432 158 662 186 116 14 299 7 400 -16 219 -49 362 -180 415 -380 21 -78 21 -262 0 -378 -46 -258 -142 -411 -504 -797 -249 -267 -336 -378 -400 -510 -34 -71 -36 -81 -36 -175 0 -84 4 -107 23 -147 93 -189 306 -256 495 -155 32 17 74 49 93 72 19 23 81 136 138 251 359 726 638 1084 971 1250 124 61 224 85 355 86 217 1 419 -78 705 -273 151 -103 302 -224 600 -479 261 -225 435 -361 787 -619 591 -431 910 -736 1091 -1039 210 -353 231 -723 63 -1087 -63 -136 -175 -278 -422 -535 -497 -517 -672 -721 -815 -950 -222 -359 -236 -648 -39 -863 115 -126 247 -133 395 -22 131 98 252 243 547 655 240 334 342 463 473 599 285 296 525 378 759 260 285 -145 531 -556 645 -1074 48 -224 84 -494 96 -740 4 -66 8 -133 10 -150 2 -16 7 -194 9 -395 19 -1270 21 -1197 -30 -1311 -30 -67 -84 -121 -153 -153 -66 -30 -288 -29 -406 3 -137 36 -317 99 -482 167 -560 230 -649 259 -770 252 -176 -12 -311 -139 -338 -320 -15 -102 50 -244 143 -313 49 -36 153 -75 202 -75 52 0 295 -49 418 -84 173 -50 298 -98 457 -177 457 -225 744 -530 843 -899 22 -83 26 -121 30 -298 4 -215 -5 -338 -40 -507 -71 -347 -263 -642 -539 -827 -275 -185 -639 -292 -1149 -339 -231 -21 -807 -19 -1230 5 -129 7 -298 16 -495 25 -210 11 -642 11 -750 0 -49 -4 -119 -11 -155 -14 -1165 -104 -2292 -326 -3240 -637 -407 -133 -564 -195 -1705 -663 -99 -41 -247 -102 -330 -135 -294 -120 -513 -214 -965 -412 -201 -88 -265 -116 -620 -273 -96 -43 -209 -92 -250 -110 -41 -18 -123 -53 -182 -79 -1415 -611 -2442 -927 -3433 -1056 -361 -47 -595 -48 -965 -4 -567 67 -1167 238 -1614 460 -292 146 -471 269 -657 454 -192 191 -291 352 -346 559 -33 124 -38 330 -10 458 39 185 123 376 245 563 498 763 1669 1384 3272 1735 638 140 1499 393 2300 677 1359 482 2495 1016 3313 1560 651 432 1071 846 1291 1269 131 252 159 402 99 530 -107 230 -398 286 -574 110 -47 -48 -60 -69 -88 -146 -68 -192 -158 -322 -366 -531 -419 -421 -1035 -837 -1921 -1295 -105 -55 -196 -99 -202 -99 -20 0 -33 307 -21 500 22 331 104 655 239 937 122 255 246 434 442 640 81 85 128 142 144 178 84 183 -10 402 -204 475 -79 30 -194 25 -272 -11 -119 -55 -429 -410 -601 -689 -47 -76 -179 -325 -190 -359 -4 -10 -30 -4 -112 23 -199 67 -339 150 -459 274 -152 156 -234 321 -285 577 -25 127 -25 492 1 654 19 125 16 172 -16 258 -26 71 -104 155 -176 190 -51 25 -68 28 -157 28 -89 0 -106 -3 -156 -27 -66 -33 -131 -96 -160 -155 -58 -121 -91 -603 -59 -883 58 -521 270 -938 620 -1222 184 -150 388 -254 635 -326 83 -24 100 -32 99 -48 -1 -10 -12 -95 -25 -189 -20 -148 -23 -210 -23 -480 -1 -266 3 -333 22 -474 12 -90 21 -165 19 -167 -17 -17 -580 -245 -920 -373 -601 -226 -1275 -439 -1867 -590 -260 -66 -545 -131 -573 -131 -25 0 -21 -7 -118 213 -274 618 -245 1162 86 1657 105 157 189 255 390 455 105 105 199 202 208 217 29 46 50 146 43 201 -18 131 -90 233 -204 289 -59 30 -76 33 -152 33 -77 0 -92 -3 -155 -34 -59 -30 -98 -63 -266 -230 -108 -108 -234 -243 -280 -301 -481 -601 -649 -1206 -528 -1909 10 -63 18 -116 16 -118 -2 -1 -39 8 -83 21 -227 67 -511 106 -795 109 -109 1 -119 -1 -182 -31 -116 -54 -193 -154 -217 -283 -24 -124 38 -289 143 -378 81 -69 115 -80 265 -86 267 -11 410 -29 597 -72 140 -32 153 -40 71 -42 -129 -3 -301 -61 -511 -170 -269 -141 -497 -291 -1099 -726 -307 -221 -440 -307 -596 -385 -393 -196 -823 -336 -1170 -380 -123 -16 -333 -16 -435 0 -436 67 -726 387 -799 883 -64 427 47 971 321 1577 106 234 175 400 212 512 20 60 37 95 44 93 27 -9 272 -36 410 -45 181 -13 405 1 592 35 459 85 815 302 1036 632 183 275 263 574 253 948 -10 368 -121 787 -315 1191 -72 150 -131 211 -236 244 -203 63 -391 -32 -453 -229 -34 -107 -23 -187 47 -324 47 -94 125 -292 162 -412 167 -542 89 -975 -213 -1189 -187 -133 -414 -188 -760 -185 -188 2 -410 23 -432 40 -6 5 -15 37 -18 71 -4 33 -18 102 -31 152 -150 575 -669 933 -1495 1031 -161 19 -550 27 -707 14 -152 -12 -211 -35 -290 -114 -53 -53 -64 -71 -84 -134 -42 -142 -7 -275 98 -371 82 -75 141 -93 288 -89 605 15 930 -34 1218 -183 117 -61 224 -168 261 -261 86 -220 43 -501 -139 -911 -68 -154 -95 -235 -119 -361 -21 -116 -24 -138 -35 -270 -10 -115 -14 -191 -26 -465 -26 -568 -94 -864 -248 -1065 -135 -178 -257 -234 -486 -222 -447 23 -1091 386 -1248 704 -36 72 -38 82 -37 162 2 109 27 195 138 469 110 270 137 363 139 472 1 50 -4 101 -12 124 -52 149 -300 241 -483 180 -107 -35 -186 -122 -336 -368 -154 -254 -238 -327 -375 -327 -97 0 -213 47 -281 115 -128 129 -215 380 -306 886 -22 124 -51 284 -64 355 -55 295 -75 558 -71 920 5 410 45 781 131 1220 115 590 282 955 506 1105 227 151 514 87 843 -190 151 -127 326 -315 510 -546 42 -52 94 -108 117 -124 116 -85 303 -80 416 10 118 94 167 243 126 381 -23 76 -68 140 -181 251 -111 110 -218 196 -501 399 -480 346 -657 515 -771 739 -133 259 -129 493 11 762 100 194 309 422 678 743 324 281 478 444 945 1000 517 615 766 874 1080 1124 236 188 540 371 702 421 132 41 228 20 253 -56 21 -63 7 -184 -36 -314 -48 -144 -206 -462 -322 -646 -151 -241 -273 -394 -601 -754 -231 -253 -387 -431 -486 -555 -294 -367 -454 -660 -527 -969 -30 -126 -32 -402 -4 -521 50 -217 162 -449 270 -563 77 -82 170 -107 245 -68 95 50 200 219 270 433 46 141 67 256 81 458 27 376 42 492 82 615 83 257 249 414 545 516 429 147 704 45 854 -318 65 -159 102 -338 164 -797 66 -489 122 -669 237 -766 61 -52 113 -68 238 -73 157 -6 213 10 285 81 63 64 85 120 92 238 16 248 -115 667 -355 1139 -107 211 -135 252 -364 538 -209 261 -309 404 -340 484 -14 38 -20 77 -20 138 1 173 64 400 271 979 165 460 190 539 237 753 127 576 316 870 712 1102 239 140 787 347 1452 550 990 301 1726 445 2068 405 361 -41 341 -260 -63 -664 -212 -213 -437 -392 -890 -710 -536 -376 -669 -475 -905 -679 -148 -127 -372 -354 -462 -466 -198 -248 -287 -462 -259 -622 33 -187 169 -302 335 -283 242 27 608 257 1096 691 186 164 723 702 956 954 410 446 444 487 699 815 254 327 335 425 460 554 316 327 629 506 1020 585 272 55 512 76 805 71 288 -5 451 -33 596 -101 212 -100 234 -277 62 -509 -75 -100 -438 -501 -688 -759 -583 -602 -1011 -958 -1444 -1200 -345 -193 -649 -551 -790 -929 -92 -245 -128 -453 -140 -805 -1 -45 -5 -84 -8 -87 -2 -3 -51 11 -109 30 -245 83 -474 125 -709 130 -355 8 -643 -73 -910 -255 -323 -222 -554 -548 -714 -1008 -70 -202 -89 -285 -83 -364 8 -125 91 -243 205 -296 48 -22 64 -24 150 -20 112 5 166 24 232 84 61 55 83 94 119 214 99 328 209 536 366 695 73 74 191 154 273 185 244 93 596 61 970 -86 101 -40 272 -120 272 -127 0 -1 7 -83 15 -182 19 -237 19 -590 0 -738 -20 -152 -55 -285 -112 -421 -42 -101 -46 -118 -46 -191 0 -107 27 -178 96 -249 80 -81 131 -101 252 -101 89 0 106 3 156 28 104 51 173 148 243 344 99 273 138 535 138 913 0 234 -6 326 -48 795 -77 847 -31 1197 198 1521 l30 42 146 -73 c425 -212 850 -340 1282 -384 129 -13 493 -6 615 13 338 51 663 171 917 339 90 59 128 100 169 177 21 39 24 59 24 145 0 89 -3 106 -28 157 -58 119 -186 200 -317 200 -89 1 -132 -13 -225 -72 -44 -29 -120 -72 -169 -96 -438 -223 -971 -224 -1590 -3 l-119 42 65 16 c136 34 297 151 547 395 292 287 673 743 955 1146 96 136 164 264 252 472 192 456 286 626 428 775 119 127 241 194 403 223 78 15 307 3 403 -20z m7905 -14051 c262 -15 467 -47 559 -88 174 -76 326 -254 392 -456 35 -106 44 -296 21 -430 -80 -457 -422 -1003 -859 -1370 -684 -576 -1509 -925 -2413 -1021 -174 -18 -606 -25 -803 -11 -869 58 -1793 412 -2448 939 -426 341 -567 675 -414 977 200 397 899 753 2020 1029 715 177 1622 320 2435 386 105 9 215 18 245 20 62 6 439 25 545 29 167 6 591 3 720 -4z m-7264 -1812 c249 -65 369 -191 371 -387 4 -387 -517 -863 -1122 -1023 -391 -105 -850 -117 -1124 -30 -185 58 -317 156 -378 281 -31 62 -33 74 -33 167 1 86 4 109 29 170 43 105 104 191 208 291 242 234 589 390 1095 494 274 57 403 70 643 66 192 -3 225 -6 311 -29z m1264 -1266 c418 -119 1107 -384 1775 -683 112 -50 371 -184 427 -221 34 -22 67 -52 72 -66 16 -40 69 -324 101 -541 40 -268 72 -559 125 -1145 50 -550 83 -849 121 -1115 38 -261 58 -357 139 -670 129 -498 154 -632 162 -865 7 -194 -9 -291 -64 -405 -92 -189 -272 -277 -551 -268 -106 4 -139 9 -202 31 -171 62 -359 196 -571 407 -263 262 -499 582 -647 876 -116 232 -188 518 -337 1341 -42 230 -92 497 -111 593 -142 705 -310 1174 -549 1535 -81 123 -147 203 -344 415 -141 153 -228 256 -278 330 -181 268 -99 416 264 474 211 34 280 30 468 -23z" fill="#5c7499"/>
<path d="M23135 20053 c-241 -24 -397 -51 -590 -100 -1063 -271 -1819 -966 -2209 -2030 l-38 -101 -97 121 c-251 311 -565 616 -881 853 -144 109 -207 143 -282 152 -120 16 -220 -18 -305 -104 -66 -68 -96 -142 -96 -239 -1 -138 53 -232 193 -329 201 -141 494 -410 693 -636 422 -480 682 -984 779 -1510 26 -144 36 -496 19 -652 -66 -578 -344 -1163 -825 -1738 -96 -114 -116 -137 -313 -346 -146 -155 -181 -213 -190 -312 -20 -222 166 -409 385 -389 110 11 157 41 317 206 253 260 436 477 615 727 177 248 357 566 456 804 26 63 49 117 50 119 5 7 221 -59 334 -102 390 -148 632 -344 711 -574 20 -57 24 -86 23 -183 -2 -139 -27 -235 -110 -411 -68 -145 -82 -205 -66 -289 35 -190 198 -316 384 -296 138 14 230 91 312 261 236 486 257 921 64 1314 -203 413 -679 747 -1335 935 -62 18 -115 34 -117 37 -2 2 2 51 10 109 21 152 29 491 15 635 -25 267 -81 521 -173 790 l-51 150 17 100 c27 156 90 409 140 557 200 599 529 1051 986 1353 391 259 818 395 1290 410 85 3 176 7 202 10 102 9 207 85 258 188 98 200 -4 440 -215 503 -46 13 -254 18 -360 7z" fill="#5c7499"/>
<path d="M17220 13263 c-57 -10 -103 -31 -250 -113 -788 -442 -1656 -817 -2660 -1148 -655 -216 -1106 -342 -2240 -623 -771 -191 -953 -240 -1200 -321 -695 -227 -1181 -496 -1514 -835 -302 -308 -454 -636 -487 -1053 -13 -163 -5 -240 33 -319 30 -62 98 -127 166 -159 49 -23 70 -27 152 -27 110 0 160 18 230 81 88 80 109 135 121 314 10 163 35 265 93 385 184 376 637 676 1399 926 82 27 152 49 157 49 5 0 -15 -48 -44 -107 -178 -358 -257 -667 -243 -958 10 -224 67 -396 190 -580 114 -171 390 -378 571 -431 289 -82 540 230 406 503 -38 76 -86 119 -204 181 -207 108 -277 245 -248 480 28 223 164 529 375 847 84 127 214 301 244 327 10 8 185 57 388 107 1245 310 2253 635 3189 1027 l129 55 81 -79 c45 -43 106 -99 136 -125 45 -39 52 -50 40 -57 -39 -22 -192 -135 -273 -202 -256 -210 -445 -478 -514 -733 -24 -89 -27 -117 -27 -255 0 -166 15 -252 69 -390 65 -166 200 -258 364 -248 215 13 373 213 327 413 -8 33 -24 85 -35 115 -53 144 -1 280 174 455 129 129 339 276 535 375 l82 41 119 -51 c843 -364 1831 -334 2832 87 183 76 228 113 280 222 26 55 31 76 30 140 -1 109 -30 180 -104 252 -110 108 -250 132 -404 70 -370 -151 -695 -242 -1030 -287 -182 -25 -565 -25 -725 -1 -347 54 -645 157 -921 320 -71 43 -233 161 -308 225 l-35 30 215 107 c375 188 587 308 647 367 23 23 55 67 70 97 24 49 27 68 27 151 0 87 -3 100 -32 156 -39 75 -116 146 -187 173 -56 21 -143 32 -186 24z" fill="#5c7499"/>
</g>
</svg>