    
    <svg id="Frontview" 
    class="mx-auto"
    xmlns="http://www.w3.org/2000/svg"
    width="80%" 
    viewBox="0 50 300 110" 
    fill="none">
        <path fill="#1b1b1b" fill-rule="evenodd" d="M54.07 62.5c-12.348 5.292-14.916 17.562-12.734 32.95.142.998-.08 2.012-.67 2.827-2.09 2.885-5.329 7.437-6.421 17.771-.13 1.226-.785 2.338-1.747 3.109-4.131 3.307-8.599 8.914-9.928 13.343-.423 1.41-.852 3.132-1.332 5.06-1.164 4.67-2.629 10.551-5.045 16.156a4.415 4.415 0 01-.285.545c-1.188 1.951-3.114 5.93-3.838 7.739-4.167 2-11.769 6.808-11 9.5.66 2.307 2.84.704 4.106-.228.654-.481 1.065-.783.894-.272-.528 1.586-1.098 2.78-1.63 3.892-.808 1.694-1.526 3.199-1.87 5.608-.392 2.744 1.368 5.796 7.931 6.022 4.176.143 7.922-2.564 9.434-6.459 2.552-6.576 2.391-11.402 2.135-12.563.293-.439.596-1.072.986-1.887 1.456-3.042 4.126-8.619 12.014-16.113.496-.471 1.03-.96 1.589-1.471 5.09-4.657 12.26-11.217 11.911-24.029-.218-1.309.99-2.617 2.506-4.257 1.337-1.447 2.912-3.153 3.957-5.344.435-.913 2.122-1.087 2.594-.193 1.753 3.318 4.234 7.348 6.443 10.294 1.5 2 .5 8-.5 11.5a57.638 57.638 0 01-.486 1.579c-1.077 3.386-2.539 7.983-1.014 14.421 2.301 9.715-.297 18.328-3.283 28.227-2.7 8.95-5.717 18.952-5.717 31.773 0 17.491 1.715 24.102 3.308 30.239.865 3.337 1.694 6.533 2.192 11.261.33 3.125-.586 7.385-1.749 12.799-2.373 11.047-5.777 26.897-1.75 47.701.521 2.698 1.427 6.215 2.428 10.103 3.081 11.967 7.068 27.452 3.571 33.397-3.229 5.489-8.114 8.673-12.39 11.459-2.345 1.529-4.506 2.937-6.11 4.541-3.5 3.5 12 6.5 25 2 3.22-1.115 4.733-1.086 5.9-1.063.871.017 1.55.03 2.6-.437 2.453-1.09 2.232-3.665 1.523-11.934-.591-6.903-1.523-17.776-1.523-35.066 0-2.723.966-5.535 2.088-8.801 1.555-4.53 3.412-9.936 3.412-17.199 0-8.601-1.583-15.443-2.663-20.108-.74-3.199-1.244-5.375-.837-6.392l.16-.398c1.713-4.251 5.872-14.569 6.84-44.102.049-1.476.55-4.781 1.183-8.963 1.298-8.566 3.153-20.809 2.817-28.537-.022-.508.815-.285 1.436-.12.208.055.391.104.51.117v.003l.027-.001.027.001v-.003c.12-.013.302-.062.51-.117.62-.165 1.458-.388 1.436.12-.336 7.728 1.52 19.971 2.817 28.537.634 4.182 1.135 7.487 1.183 8.963.968 29.533 5.127 39.851 6.84 44.102l.16.398c.407 1.017-.097 3.193-.837 6.392-1.08 4.665-2.663 11.507-2.663 20.108 0 7.263 1.857 12.669 3.413 17.199 1.122 3.266 2.087 6.078 2.087 8.801 0 17.29-.932 28.163-1.523 35.066-.709 8.269-.929 10.844 1.523 11.934 1.051.467 1.729.454 2.599.437 1.168-.023 2.681-.052 5.901 1.063 13 4.5 28.5 1.5 25-2-1.604-1.604-3.765-3.012-6.11-4.541-4.276-2.786-9.161-5.97-12.39-11.459-3.497-5.945.49-21.43 3.571-33.397 1.001-3.888 1.907-7.405 2.429-10.103 4.027-20.804.622-36.654-1.751-47.701-1.163-5.414-2.078-9.674-1.749-12.799.498-4.728 1.327-7.924 2.193-11.261 1.592-6.137 3.307-12.748 3.307-30.239 0-12.821-3.017-22.823-5.717-31.773-2.986-9.899-5.584-18.512-3.283-28.227 1.525-6.438.063-11.035-1.014-14.421-.177-.558-.344-1.084-.486-1.579-1-3.5-2-9.5-.5-11.5 2.209-2.946 4.69-6.976 6.443-10.294.472-.894 2.159-.72 2.594.193 1.045 2.191 2.62 3.897 3.957 5.344 1.515 1.64 2.724 2.948 2.506 4.257-.349 12.812 6.822 19.372 11.911 24.029.559.511 1.093 1 1.589 1.471 7.888 7.494 10.558 13.071 12.014 16.113.39.815.693 1.448.986 1.887-.256 1.161-.417 5.987 2.135 12.563 1.512 3.895 5.258 6.602 9.434 6.459 6.563-.226 8.323-3.278 7.931-6.022-.344-2.409-1.062-3.914-1.871-5.608-.531-1.112-1.1-2.306-1.629-3.892-.17-.511.24-.209.895.272 1.266.932 3.446 2.535 4.105.228.769-2.692-6.833-7.5-11-9.5-.724-1.809-2.65-5.788-3.838-7.739a4.344 4.344 0 01-.285-.545c-2.416-5.605-3.881-11.486-5.045-16.156-.48-1.928-.909-3.65-1.332-5.06-1.329-4.429-5.797-10.036-9.927-13.343-.963-.771-1.618-1.883-1.748-3.109-1.092-10.334-4.33-14.886-6.421-17.77-.591-.816-.811-1.83-.67-2.827 2.182-15.389-.386-27.659-12.734-32.951-1.494-.64-2.906-1.242-4.241-1.812-17.429-7.432-21.626-9.221-21.259-16.188.103-1.958 1.138-4.56 1.982-6.683.45-1.131.845-2.126 1.018-2.817.227-.907.881-1.59 1.623-2.364 1.304-1.36 2.877-3.003 2.877-6.636 0-2.661-.49-3.6-.937-4.456-.51-.977-.963-1.845-.563-5.044.998-7.984-8.462-15.47-17.446-15.5h-.054c-8.984.03-18.444 7.516-17.446 15.5.4 3.2-.053 4.067-.563 5.044-.447.855-.937 1.795-.937 4.456 0 3.633 1.574 5.275 2.877 6.636.742.774 1.396 1.457 1.623 2.364.173.69.569 1.686 1.018 2.817.845 2.124 1.88 4.725 1.982 6.683.367 6.967-3.83 8.756-21.259 16.188-1.335.57-2.747 1.172-4.24 1.812z" clip-rule="evenodd"></path>
        

        <a href="{{ path('app_muscleGroup_details', {'id': 1}) }}" class="Chest">
            <g>
                <path fill="#7F8097" d="M90.07 75v20.5c0 .276-.22.5-.497.503-3.26.03-10.191.359-15.503 1.497-7 1.5-11.5-2-13.5-5.5-1.493-2.612-5.008-3.338-7.192-3.474-.371-.023-.595-.407-.395-.72.966-1.502 3.14-4.534 4.587-7.306 6.29-12.045 12.9-14.197 16-14 2.22.142 11.1 2.8 13.5 4 2.4 1.2 3 3.5 3 4.5z" class="Pec"></path>
                <path fill="#7F8097" d="M92.07 75v20.5c0 .276.221.5.497.503 3.26.03 10.191.359 15.503 1.497 7 1.5 11.5-2 13.5-5.5 1.493-2.612 5.008-3.338 7.193-3.474.371-.023.595-.407.394-.72-.965-1.502-3.139-4.534-4.587-7.306-6.29-12.045-12.9-14.197-16-14-2.219.142-11.1 2.8-13.5 4-2.4 1.2-3 3.5-3 4.5z" class="Pec"></path>
            </g>
        </a>
    
        <a href="{{ path('app_muscleGroup_details', {'id': 4}) }}" class="Shoulders - Front">
            <g>
                <path fill="#7F8097" d="M54.07 82.5c4.817-9.635 10.42-14.834 13.77-16.51.413-.207.44-.863.015-1.043-16.6-7.059-28.91 8.22-24.922 28.873a.48.48 0 00.724.325c3.453-2.192 8.05-6.918 10.413-11.645z" class="Shoulder"></path>
                <path fill="#7F8097" d="M128.07 82.5c-4.817-9.635-10.419-14.834-13.77-16.51-.413-.207-.439-.863-.015-1.043 16.6-7.059 28.911 8.22 24.922 28.873a.48.48 0 01-.724.325c-3.452-2.192-8.05-6.918-10.413-11.645z" class="Shoulder"></path>
            </g>
        </a>
    
        <a href="{{ path('app_muscleGroup_details', {'id': 3}) }}" class="Biceps">
            <g>
                <path fill="#7F8097" d="M45.036 96.517c-6.712 3.34-13.664 30.128-3.966 28.483 2.822-.413 13.5-10.5 13-21-.5-3 3.682-10.874 1.5-12-4.181-2.158-5.991 1.333-10.467 4.477a.507.507 0 01-.067.04z" class="Bicep"></path>
                <path fill="#7F8097" d="M137.104 96.517c6.713 3.34 13.664 30.128 3.966 28.483-2.822-.413-13.5-10.5-13-21 .5-3-3.682-10.874-1.5-12 4.182-2.158 5.991 1.333 10.467 4.477a.59.59 0 00.067.04z" class="Bicep"></path>
            </g>
        </a>
       
        <a href="{{ path('app_muscleGroup_details', {'id': 5}) }}" class="Back - Front">
            <g>
                <path fill="#DF0F2F" d="M65.248 99.903c-1.626-.569-4.008-2.483-5.625-4.439-.324-.39-1.12-.167-1.202.333-.42 2.576-1.602 4.638-1.846 7.154a.501.501 0 000 .098c.807 7.725 4.294 13.788 7.172 17.07.294.335.802.119.746-.323-.358-2.844-1.803-4.828-.923-6.296 1.482-2.469 3.24-4.155 2.046-13.16a.55.55 0 00-.368-.437z" class="Lats"></path>
                <path fill="#DF0F2F" d="M116.892 99.903c1.626-.569 4.008-2.483 5.626-4.439.323-.39 1.119-.167 1.201.333.421 2.576 1.603 4.638 1.847 7.154a.459.459 0 01-.001.098c-.807 7.725-4.294 13.788-7.172 17.07-.294.335-.801.119-.746-.323.358-2.844 1.804-4.828.923-6.296-1.481-2.469-3.239-4.155-2.046-13.16a.551.551 0 01.368-.437z" class="Lats"></path>
            </g>

            <g>
                <path fill="#C239CC" d="M91.07 70.5c-7.5-3.5-10.786-23.644-9.5-21.5 1.5 2.5 2 2 3.5 4s.5 11.112 6 16v1.5z" class="Neck"></path>
                <path fill="#C239CC" d="M91.07 70.5c7.5-3.5 10.786-23.644 9.5-21.5-1.5 2.5-2 2-3.5 4s-.5 11.112-6 16v1.5z" class="Neck"></path>
            </g>
            <g>
                <path fill="#F46CF3" d="M79.57 52c-3.117 2.672-10.86 6.533-15.813 8.759-.466.209-.372.967.126 1.081C68.712 62.943 77.448 66 80.07 66c2.912 0 3.618-1 3-2.5-3.5-8.5-2.69-12.194-3.5-11.5z" class="Trap"></path>
                <path fill="#F46CF3" d="M102.57 52c3.117 2.672 10.86 6.533 15.814 8.759.465.209.371.967-.126 1.081-4.829 1.103-13.565 4.16-16.188 4.16-2.912 0-3.617-1-3-2.5 3.5-8.5 2.691-12.194 3.5-11.5z" class="Trap"></path>
            </g>
        </a>
        
        <a href="{{ path('app_muscleGroup_details', {'id': 6}) }}" class="Abdominals">
            <g class="LowerAbs">
                <path fill="#7F8097" d="M90.07 139.5v-16.205c0-.182-.098-.351-.274-.4-1.542-.435-6.701-.096-8.726 1.105-5.514 3.27-3.195 15.69 2 16 .683.041 4.366.006 6.501.001a.5.5 0 00.5-.501zM90.07 181.5v-39c0-.276-.223-.5-.5-.505-2.77-.047-8.53-.373-9 1.505-3.98 15.922 4.782 36.827 9.017 38.405.258.096.483-.129.483-.405z" class="LowerAb"></path>
                <path fill="#7F8097" d="M92.07 139.5v-16.205c0-.182.099-.351.274-.4 1.542-.435 6.702-.096 8.726 1.105 5.515 3.27 3.195 15.69-2 16-.683.041-4.366.006-6.501.001a.5.5 0 01-.499-.501zM92.07 181.5v-39c0-.276.224-.5.5-.505 2.77-.047 8.531-.373 9 1.505 3.981 15.922-4.781 36.827-9.016 38.405-.259.096-.484-.129-.484-.405z" class="LowerAb"></path>              
                <path fill="#7F8097" d="M74.07 113c5.324-3.328 10.195-6.783 15.5-6.99a.516.516 0 00.5-.51v-6.849c0-.098-.025-.197-.1-.262-1.497-1.31-12.57.15-18.9 1.61-6.778 1.565-1 15.501 3 13.001zM90.07 120.399v-11.855a.484.484 0 00-.54-.487c-6.396.813-14.572 6.454-14.46 7.943.11 1.461 1.921 7.543 4 6.5 2.703-1.356 7.72-1.878 10.408-1.585a.53.53 0 00.592-.516z" class="LowerAb"></path>
                <path fill="#7F8097" d="M108.07 113c-5.324-3.328-10.195-6.783-15.5-6.99a.516.516 0 01-.5-.51v-6.849c0-.098.026-.197.1-.262 1.498-1.31 12.57.15 18.9 1.61 6.779 1.565 1 15.501-3 13.001zM92.07 120.399v-11.855c0-.293.25-.524.54-.487 6.396.813 14.572 6.454 14.46 7.943-.11 1.461-1.921 7.543-4 6.5-2.702-1.356-7.719-1.878-10.407-1.585a.53.53 0 01-.593-.516z" class="LowerAb"></path>
            </g>
            <g class="Obliques">
                <path fill="#7F8097" d="M64.275 140.654c-1.21 2.972-1.226 7.048-.705 9.346 3.042 8.325 7.156 12.647 11.461 14.749a.455.455 0 00.657-.329c.689-4.238-1.302-12.594-2.118-13.92-2.686-4.367-5.95-7.323-8.505-9.98-.242-.251-.659-.189-.79.134z" class="Oblique"></path>
                <path fill="#7F8097" d="M117.865 140.654c1.211 2.972 1.226 7.048.705 9.346-3.042 8.325-7.155 12.647-11.461 14.749a.455.455 0 01-.657-.329c-.688-4.238 1.302-12.594 2.118-13.92 2.687-4.367 5.95-7.323 8.506-9.98.241-.251.658-.189.789.134z" class="Oblique"></path>
                <path fill="#7F8097" d="M74.685 145.825c.296-1.725.25-5.619.315-7.325.104-2.72-4.412-5.435-7.782-7.584a.529.529 0 00-.793.339c-.522 2.385-1.662 5.393-.355 6.745 3.007 3.111 5.121 5.122 7.938 7.996.24.246.619.168.677-.171z" class="Oblique"></path>
                <path fill="#7F8097" d="M107.456 145.825c-.296-1.725-.25-5.619-.316-7.325-.104-2.72 4.412-5.435 7.783-7.584a.528.528 0 01.792.339c.523 2.385 1.662 5.393.355 6.745-3.006 3.111-5.121 5.122-7.938 7.996-.24.246-.618.168-.676-.171z" class="Oblique"></path>
                <path fill="#7F8097" d="M75.616 132.568c.088-6.644-1.512-15.459-9.105-17.372-.392-.099-.71.308-.568.686 1.297 3.428 1.868 8.975 1.627 11.618.022 1.196 4.467 2.899 7.059 5.421.34.33.98.12.987-.353z" class="Oblique"></path>
                <path fill="#7F8097" d="M106.525 132.568c-.088-6.644 1.511-15.459 9.105-17.372.392-.099.71.308.567.686-1.296 3.428-1.868 8.975-1.627 11.618-.022 1.196-4.467 2.899-7.059 5.421-.339.33-.98.12-.986-.353z" class="Oblique"></path>
            </g>
        </a>
        
    </svg>

    <svg id="Backview" 
            class="mx-auto"
            xmlns="http://www.w3.org/2000/svg" 
            width="80%" 
            viewBox="0 50 300 110" 
            fill="none">
                  
                <path fill="#1b1b1b" fill-rule="evenodd" clip-rule="evenodd" d="M53.1404 61.5C40.792 66.7922 38.224 79.0623 40.4064 94.4506C40.5478 95.4478 40.327 96.4618 39.736 97.2774C37.6454 100.162 34.4073 104.714 33.3152 115.048C33.1856 116.274 32.5304 117.386 31.5678 118.157C27.4369 121.464 22.9691 127.071 21.6404 131.5C21.2173 132.91 20.7884 134.632 20.308 136.56C19.1446 141.23 17.6793 147.111 15.2636 152.716C15.1821 152.905 15.085 153.085 14.9779 153.261C13.79 155.212 11.8639 159.191 11.1404 161C6.97369 163 -0.628819 167.808 0.140394 170.5C0.799578 172.807 2.97963 171.204 4.2458 170.272C4.90043 169.791 5.31077 169.489 5.14035 170C4.6118 171.586 4.04192 172.78 3.51102 173.892C2.70257 175.586 1.98449 177.091 1.64038 179.5C1.24833 182.244 3.00817 185.296 9.57141 185.522C13.7474 185.665 17.4934 182.958 19.0052 179.063C21.5573 172.487 21.3966 167.661 21.1404 166.5C21.4332 166.061 21.7362 165.428 22.1262 164.613C23.5826 161.571 26.2524 155.994 34.1403 148.5C34.6363 148.029 35.1702 147.54 35.7291 147.029C40.8185 142.372 47.9893 135.812 47.6404 123C47.4223 121.691 48.631 120.383 50.1464 118.743C51.4831 117.296 53.0584 115.59 54.1034 113.399C54.5385 112.486 56.2251 112.312 56.6973 113.206C58.4505 116.524 60.931 120.554 63.1404 123.5C64.6404 125.5 63.6404 131.5 62.6404 135C62.4988 135.495 62.3317 136.021 62.1541 136.579C61.0772 139.965 59.6155 144.562 61.1404 151C63.4414 160.715 60.8435 169.328 57.8575 179.227C55.1576 188.177 52.1404 198.179 52.1404 211C52.1404 228.491 53.8555 235.102 55.4478 241.239C56.3134 244.576 57.1427 247.772 57.6404 252.5C57.9693 255.625 57.0541 259.885 55.8912 265.299C53.5183 276.346 50.1138 292.196 54.1404 313C54.6663 315.717 55.5688 319.35 56.577 323.408C59.5364 335.319 63.4066 350.896 61.3358 357.749C61.183 358.255 60.8808 358.697 60.4925 359.055C57.7689 361.564 54.8366 362.834 52.0378 364.046C49.3179 365.223 46.724 366.346 44.5702 368.5C41.0702 372 48.5702 374 58.0702 374.5C59.4799 374.574 61.3569 375.054 63.3925 375.575C67.9982 376.753 73.4159 378.138 76.0702 375.5C78.239 373.345 77.986 370.845 77.3534 364.595C76.6688 357.83 75.5394 346.671 76.5548 326.798C76.5647 326.605 76.588 326.407 76.6288 326.218C76.902 324.949 77.3495 323.439 77.8665 321.693C79.4088 316.486 81.5702 309.188 81.5702 300C81.5702 291.435 79.9726 284.778 78.887 280.255C78.1347 277.12 77.6284 275.01 78.0702 274C81.5702 266 83.7038 260.727 85.0702 230C85.1311 228.63 85.4893 225.782 85.9451 222.157C86.9937 213.82 88.5591 201.374 88.2105 193.358C88.186 192.794 89.1792 192.903 89.7826 192.969C89.9031 192.983 90.008 192.994 90.0862 192.998V193C90.0947 193 90.1038 193 90.1133 193C90.1228 193 90.1318 193 90.1404 193V192.998C90.2185 192.994 90.3235 192.983 90.444 192.969C91.0474 192.903 92.0406 192.794 92.016 193.358C91.6675 201.374 93.2328 213.82 94.2815 222.157C94.7373 225.782 95.0955 228.63 95.1564 230C96.5227 260.727 98.6564 266 102.156 274C102.598 275.01 102.092 277.12 101.34 280.255C100.254 284.778 98.6564 291.435 98.6564 300C98.6564 309.188 100.818 316.486 102.36 321.693C102.877 323.439 103.325 324.949 103.598 326.218C103.639 326.407 103.662 326.605 103.672 326.798C104.687 346.671 103.558 357.83 102.873 364.595C102.241 370.845 101.988 373.345 104.156 375.5C106.811 378.138 112.228 376.753 116.834 375.575C118.87 375.054 120.747 374.574 122.156 374.5C131.656 374 139.156 372 135.656 368.5C133.503 366.346 130.909 365.223 128.189 364.046C125.39 362.834 122.458 361.564 119.734 359.055C119.346 358.697 119.044 358.255 118.891 357.749C116.82 350.896 120.69 335.319 123.65 323.408C124.658 319.35 125.56 315.717 126.086 313C130.113 292.196 126.708 276.346 124.335 265.299C123.172 259.885 122.257 255.625 122.586 252.5C123.084 247.772 123.913 244.576 124.779 241.239C126.371 235.102 128.086 228.491 128.086 211C128.086 198.179 125.069 188.177 122.369 179.227C119.383 169.328 116.785 160.715 119.086 151C120.611 144.562 119.149 139.965 118.072 136.579C117.895 136.021 117.728 135.495 117.586 135C116.586 131.5 115.586 125.5 117.086 123.5C119.296 120.554 121.776 116.524 123.529 113.206C124.002 112.312 125.688 112.486 126.123 113.399C127.168 115.59 128.743 117.296 130.08 118.743C131.596 120.383 132.804 121.691 132.586 123C132.237 135.812 139.408 142.372 144.497 147.029C145.056 147.54 145.59 148.029 146.086 148.5C153.974 155.994 156.644 161.571 158.1 164.613C158.49 165.428 158.793 166.061 159.086 166.5C158.83 167.661 158.669 172.487 161.221 179.063C162.733 182.958 166.479 185.665 170.655 185.522C177.218 185.296 178.978 182.244 178.586 179.5C178.242 177.091 177.524 175.586 176.716 173.892C176.185 172.78 175.615 171.586 175.086 170C174.916 169.489 175.326 169.791 175.981 170.272C177.247 171.204 179.427 172.807 180.086 170.5C180.855 167.808 173.253 163 169.086 161C168.363 159.191 166.437 155.212 165.249 153.261C165.142 153.085 165.044 152.905 164.963 152.716C162.547 147.111 161.082 141.23 159.919 136.56C159.438 134.632 159.009 132.91 158.586 131.5C157.257 127.071 152.79 121.464 148.659 118.157C147.696 117.386 147.041 116.274 146.911 115.048C145.819 104.714 142.581 100.162 140.491 97.2774C139.9 96.4618 139.679 95.4478 139.82 94.4506C142.003 79.0623 139.435 66.7922 127.086 61.5C125.592 60.8598 124.18 60.2575 122.845 59.6883C105.417 52.2562 101.22 50.4665 101.586 43.5C101.689 41.5423 102.724 38.9407 103.568 36.8168C104.018 35.686 104.414 34.6906 104.586 34C104.813 33.0931 105.467 32.41 106.209 31.6355C107.513 30.2751 109.086 28.6328 109.086 25C109.086 22.3387 108.596 21.3994 108.149 20.5439C107.639 19.5668 107.186 18.6991 107.586 15.5C108.584 7.51604 99.1243 0.0300755 90.1404 9.03849e-05V0C90.1313 0 90.1223 7.5376e-06 90.1133 2.26057e-05C90.1043 7.53765e-06 90.0952 0 90.0862 0V9.03849e-05C81.1023 0.0300755 71.6424 7.51604 72.6404 15.5C73.0402 18.6991 72.5873 19.5668 72.0772 20.5439C71.6307 21.3994 71.1404 22.3387 71.1404 25C71.1404 28.6328 72.7138 30.2751 74.0172 31.6355C74.7592 32.41 75.4136 33.0931 75.6404 34C75.813 34.6906 76.2088 35.686 76.6584 36.8168C77.5029 38.9407 78.5373 41.5423 78.6404 43.5C79.007 50.4665 74.81 52.2562 57.3813 59.6883C56.0465 60.2575 54.6342 60.8598 53.1404 61.5Z" fill="#1b1b1b"></path>
                <a class="Shoulders" href="{{ path('app_muscleGroup_details', {'id': 4}) }}">
                    <g>
                        <path class="Rear Delt" d="M44.5556 92.9433C47.5662 89.9242 52.1266 85.4686 60.0002 83.5002C65.654 82.0867 70.9446 78.5 70.5002 74.5002C69.8891 69 63.6952 68.3957 61.0002 66.0001C52.1251 58.1108 37.9016 75.0195 43.7417 92.7511C43.8563 93.099 44.2969 93.2026 44.5556 92.9433Z" fill="#7F8097"></path>
            
                        <path class="Rear Delt" d="M135.445 92.9433C132.434 89.9242 127.874 85.4686 120 83.5002C114.346 82.0867 109.056 78.5 109.5 74.5002C110.111 69 116.305 68.3957 119 66.0001C127.875 58.1108 142.099 75.0195 136.259 92.7511C136.144 93.099 135.704 93.2026 135.445 92.9433Z" fill="#7F8097"></path>
                    </g>
                </a>
            
                <a class="Back" href="{{ path('app_muscleGroup_details', {'id': 5}) }}">
                    <g>
                        <path class="Trapezius" d="M89 53.4999V38.6983C89 38.5709 88.952 38.4472 88.8615 38.3574C88.2638 37.7648 87.9523 37.7745 87.5313 38.4488C87.5104 38.4823 87.4946 38.5172 87.4825 38.5549C86.462 41.745 83.1701 48.523 78 52.5C73.0728 56.2902 64.0156 60.0803 59.6759 61.7436C59.3486 61.8691 59.2537 62.286 59.4983 62.5371C66.4388 69.6599 73.5782 62.5288 73.5 86.4999C73.4375 105.631 82.6449 116.68 88.2588 120.521C88.5804 120.741 89 120.502 89 120.112V71.5C89 64.0001 84 62.5 84 61C84 59.5 89 58.5 89 53.4999Z" fill="#F46CF3"></path>
                
                        <path class="Trapezius" d="M91 53.4999V38.6983C91 38.5709 91.048 38.4472 91.1385 38.3574C91.7362 37.7648 92.0477 37.7745 92.4687 38.4488C92.4896 38.4823 92.5054 38.5172 92.5175 38.5549C93.538 41.745 96.8299 48.523 102 52.5C106.927 56.2902 115.984 60.0803 120.324 61.7436C120.651 61.8691 120.746 62.286 120.502 62.5371C113.561 69.6599 106.422 62.5288 106.5 86.4999C106.562 105.631 97.3551 116.68 91.7412 120.521C91.4196 120.741 91 120.502 91 120.112V71.5C91 64.0001 96 62.5 96 61C96 59.5 91 58.5 91 53.4999Z" fill="#F46CF3"></path>
            
                        <path class="Teres Major" d="M71.8274 90.7613C71.8274 86.5769 71.8274 83.5903 71.3525 80.2529C71.2914 79.8236 70.7401 79.6797 70.4466 79.999C64.8464 86.0931 55.8032 85.6371 56.9999 87.5C61.6178 94.6892 71.8274 91.7384 71.8274 90.8237V90.7613Z" fill="#E01961"></path>
                
                        <path class="Teres Major" d="M108.173 90.7613C108.173 86.5769 108.173 83.5903 108.648 80.2529C108.709 79.8236 109.26 79.6797 109.553 79.999C115.154 86.0931 124.197 85.6371 123 87.5C118.382 94.6892 108.173 91.7384 108.173 90.8237V90.7613Z" fill="#E01961"></path>
                        
                        <path class="Lats" d="M71.3031 93.3248C64.9843 96.056 59.3244 92.7592 56.6712 90.2014C56.3782 89.9189 55.8758 90.0512 55.8043 90.4519C54.1725 99.5938 58.1777 114.825 64.0001 121C66.3114 123.451 67.9359 130.23 69.4124 135.678C69.4654 135.873 69.6275 136.019 69.8301 136.018C74.1262 135.991 87.6478 126.989 88.917 123.331C88.9847 123.136 88.8811 122.934 88.7029 122.83C77.7005 116.409 72.6802 100.451 72.0543 93.7612C72.0207 93.4011 71.635 93.1813 71.3031 93.3248Z" fill="#DF0F2F"></path>
                        
                        <path class="Lats" d="M108.697 93.3248C115.016 96.056 120.676 92.7592 123.329 90.2014C123.622 89.9189 124.124 90.0512 124.196 90.4519C125.827 99.5938 121.822 114.825 116 121C113.689 123.451 112.064 130.23 110.588 135.678C110.535 135.873 110.372 136.019 110.17 136.018C105.874 135.991 92.3522 126.989 91.083 123.331C91.0153 123.136 91.1189 122.934 91.2971 122.83C102.3 116.409 107.32 100.451 107.946 93.7612C107.979 93.4011 108.365 93.1813 108.697 93.3248Z" fill="#DF0F2F"></path>
                    
                        <path class="Spinal Erectors" d="M89 160.806V127.274C89 126.819 88.4393 126.601 88.1257 126.93C82.631 132.695 78.6462 135.285 70.9054 137.866C70.6733 137.943 70.5276 138.178 70.5634 138.42C71.4528 144.42 71.4879 149.548 71.0699 153.401C71.0361 153.713 71.2932 153.981 71.6067 153.969C79.8562 153.657 85.339 157.935 87.8266 161.154C88.1517 161.575 89 161.338 89 160.806Z" fill="#7F8097"></path>
            
                        <path class="Spinal Erectors" d="M91 160.806V127.274C91 126.819 91.5607 126.601 91.8743 126.93C97.369 132.695 101.354 135.285 109.095 137.866C109.327 137.943 109.472 138.178 109.437 138.42C108.547 144.42 108.512 149.548 108.93 153.401C108.964 153.713 108.707 153.981 108.393 153.969C100.144 153.657 94.661 157.935 92.1734 161.154C91.8483 161.575 91 161.338 91 160.806Z" fill="#7F8097"></path>
                    </g>
                </a>
            
                <a class="Triceps" href="{{ path('app_muscleGroup_details', {'id': 2}) }}">  
                    <g>
                        <path class="Long Head" d="M54.4652 106.735C53.7185 102.69 52.5671 93.5478 54.2391 88.842C54.2506 88.8097 54.2594 88.7765 54.2617 88.7424C54.3123 87.9821 52.9018 88.382 51.5764 90.0309C46.4397 96.4211 44.2257 108.685 45.0065 112.77C45.5768 115.753 41.496 120.004 41.4087 122.376C41.3967 122.699 41.7536 122.826 42.0132 122.632C46.3253 119.411 55.0737 110.031 54.4652 106.735Z" fill="#7F8097"></path>
                
                        <path class="Long Head" d="M125.535 106.735C126.282 102.69 127.433 93.5478 125.761 88.842C125.75 88.8097 125.741 88.7765 125.739 88.7424C125.688 87.9821 127.099 88.382 128.424 90.0309C133.561 96.4211 135.775 108.685 134.994 112.77C134.424 115.753 138.504 120.004 138.592 122.376C138.604 122.699 138.247 122.826 137.987 122.632C133.675 119.411 124.927 110.031 125.535 106.735Z" fill="#7F8097"></path>
                
                        <path class="Medial Head" d="M35.5106 111.223C36.3894 102.603 41.7053 97.778 45.3101 94.8062C45.7458 94.447 46.5258 95.0639 46.3005 95.5817C44.0772 100.691 42.6438 106.863 42.7165 110.254C42.7207 110.449 42.6174 110.63 42.4434 110.718C41.4344 111.226 40.4792 111.765 39.3265 116.571C38.8478 118.567 37.8437 121.382 34.8919 123.456C34.5937 123.666 34.1911 123.467 34.1573 123.104C33.6218 117.368 35.0051 116.182 35.5106 111.223Z" fill="#7F8097"></path>
                
                        <path class="Medial Head" d="M144.49 111.223C143.611 102.603 138.295 97.778 134.69 94.8062C134.255 94.447 133.475 95.0639 133.7 95.5817C135.923 100.691 137.357 106.863 137.284 110.254C137.28 110.449 137.383 110.63 137.557 110.718C138.566 111.226 139.521 111.765 140.674 116.571C141.153 118.567 142.157 121.382 145.109 123.456C145.407 123.666 145.809 123.467 145.843 123.104C146.379 117.368 144.995 116.182 144.49 111.223Z" fill="#7F8097"></path>
                    </g>
                </a>
            
               
            
                <a class="Abs" href="{{ path('app_muscleGroup_details', {'id': 6}) }}">
                    <g>
                        <path class="Obliques" d="M68.5001 154C69.7762 148.425 67.7844 137.448 66.2401 132.477C66.0836 131.973 65.4226 132.089 65.3446 132.611C64.7907 136.312 62.9246 138.755 62.5001 143C61.9823 148.178 64.0762 148.486 64.065 156.106C64.0642 156.647 64.9719 156.921 65.3681 156.552C66.8177 155.201 68.0621 155.913 68.5001 154Z" fill="#7F8097"></path>
                
                        <path class="Obliques" d="M111.5 154C110.224 148.425 112.216 137.448 113.76 132.477C113.917 131.973 114.578 132.089 114.656 132.611C115.21 136.312 117.076 138.755 117.5 143C118.018 148.178 115.924 148.486 115.935 156.106C115.936 156.647 115.028 156.921 114.632 156.552C113.183 155.201 111.938 155.913 111.5 154Z" fill="#7F8097"></path>
                    </g>
                </a>

                
                <a class="Legs" href="{{ path('app_muscleGroup_details', {'id': 7}) }}">
                    <g>
                        <path class="Glutes - gluteus maximus" d="M89 187.451V167.566C89 167.522 88.9942 167.479 88.9823 167.436C85.9206 156.47 65.6094 148.741 63.5 165.5C63.5 173.5 64 185 64.5 187.5C68.9919 201.974 86.9355 197.018 88.9891 187.551C88.9964 187.517 89 187.486 89 187.451Z" fill="#7F8097"></path>
                
                        <path class="Glutes - gluteus maximus" d="M91 187.451V167.566C91 167.522 91.0058 167.479 91.0177 167.436C94.0794 156.47 114.391 148.741 116.5 165.5C116.5 173.5 116 185 115.5 187.5C111.008 201.974 93.0645 197.018 91.0109 187.551C91.0036 187.517 91 187.486 91 187.451Z" fill="#7F8097"></path>
                        
                        <path class="Glutes - gluteus medius" d="M62.0001 184.5C61.9848 183.776 61.6877 179.904 61.5589 176.337C61.5387 175.778 60.7461 175.647 60.5673 176.177C58.6178 181.959 56.0035 190.708 56.3785 191.462C56.4209 191.547 56.525 191.458 56.5754 191.377C58.1302 188.889 62.0228 185.571 62.0001 184.5Z" fill="#7F8097"></path>
            
                        <path class="Glutes - gluteus medius" d="M118 184.5C118.015 183.776 118.313 179.904 118.441 176.337C118.462 175.778 119.254 175.647 119.433 176.177C121.382 181.959 123.997 190.708 123.622 191.462C123.579 191.547 123.475 191.458 123.425 191.377C121.87 188.889 117.977 185.571 118 184.5Z" fill="#7F8097"></path>
            
                    </g>
                </a>
        
            </svg>

    