

    <svg id="Backview" 
            class="mx-auto"
            xmlns="http://www.w3.org/2000/svg" 
            width="80%" 
            viewBox="0 50 90 130" 
            fill="none">
                  
    <path fill="#1b1b1b" fill-rule="evenodd" clip-rule="evenodd" d="M53.1404 61.5C40.792 66.7922 38.224 79.0623 40.4064 94.4506C40.5478 95.4478 40.327 96.4618 39.736 97.2774C37.6454 100.162 34.4073 104.714 33.3152 115.048C33.1856 116.274 32.5304 117.386 31.5678 118.157C27.4369 121.464 22.9691 127.071 21.6404 131.5C21.2173 132.91 20.7884 134.632 20.308 136.56C19.1446 141.23 17.6793 147.111 15.2636 152.716C15.1821 152.905 15.085 153.085 14.9779 153.261C13.79 155.212 11.8639 159.191 11.1404 161C6.97369 163 -0.628819 167.808 0.140394 170.5C0.799578 172.807 2.97963 171.204 4.2458 170.272C4.90043 169.791 5.31077 169.489 5.14035 170C4.6118 171.586 4.04192 172.78 3.51102 173.892C2.70257 175.586 1.98449 177.091 1.64038 179.5C1.24833 182.244 3.00817 185.296 9.57141 185.522C13.7474 185.665 17.4934 182.958 19.0052 179.063C21.5573 172.487 21.3966 167.661 21.1404 166.5C21.4332 166.061 21.7362 165.428 22.1262 164.613C23.5826 161.571 26.2524 155.994 34.1403 148.5C34.6363 148.029 35.1702 147.54 35.7291 147.029C40.8185 142.372 47.9893 135.812 47.6404 123C47.4223 121.691 48.631 120.383 50.1464 118.743C51.4831 117.296 53.0584 115.59 54.1034 113.399C54.5385 112.486 56.2251 112.312 56.6973 113.206C58.4505 116.524 60.931 120.554 63.1404 123.5C64.6404 125.5 63.6404 131.5 62.6404 135C62.4988 135.495 62.3317 136.021 62.1541 136.579C61.0772 139.965 59.6155 144.562 61.1404 151C63.4414 160.715 60.8435 169.328 57.8575 179.227C55.1576 188.177 52.1404 198.179 52.1404 211C52.1404 228.491 53.8555 235.102 55.4478 241.239C56.3134 244.576 57.1427 247.772 57.6404 252.5C57.9693 255.625 57.0541 259.885 55.8912 265.299C53.5183 276.346 50.1138 292.196 54.1404 313C54.6663 315.717 55.5688 319.35 56.577 323.408C59.5364 335.319 63.4066 350.896 61.3358 357.749C61.183 358.255 60.8808 358.697 60.4925 359.055C57.7689 361.564 54.8366 362.834 52.0378 364.046C49.3179 365.223 46.724 366.346 44.5702 368.5C41.0702 372 48.5702 374 58.0702 374.5C59.4799 374.574 61.3569 375.054 63.3925 375.575C67.9982 376.753 73.4159 378.138 76.0702 375.5C78.239 373.345 77.986 370.845 77.3534 364.595C76.6688 357.83 75.5394 346.671 76.5548 326.798C76.5647 326.605 76.588 326.407 76.6288 326.218C76.902 324.949 77.3495 323.439 77.8665 321.693C79.4088 316.486 81.5702 309.188 81.5702 300C81.5702 291.435 79.9726 284.778 78.887 280.255C78.1347 277.12 77.6284 275.01 78.0702 274C81.5702 266 83.7038 260.727 85.0702 230C85.1311 228.63 85.4893 225.782 85.9451 222.157C86.9937 213.82 88.5591 201.374 88.2105 193.358C88.186 192.794 89.1792 192.903 89.7826 192.969C89.9031 192.983 90.008 192.994 90.0862 192.998V193C90.0947 193 90.1038 193 90.1133 193C90.1228 193 90.1318 193 90.1404 193V192.998C90.2185 192.994 90.3235 192.983 90.444 192.969C91.0474 192.903 92.0406 192.794 92.016 193.358C91.6675 201.374 93.2328 213.82 94.2815 222.157C94.7373 225.782 95.0955 228.63 95.1564 230C96.5227 260.727 98.6564 266 102.156 274C102.598 275.01 102.092 277.12 101.34 280.255C100.254 284.778 98.6564 291.435 98.6564 300C98.6564 309.188 100.818 316.486 102.36 321.693C102.877 323.439 103.325 324.949 103.598 326.218C103.639 326.407 103.662 326.605 103.672 326.798C104.687 346.671 103.558 357.83 102.873 364.595C102.241 370.845 101.988 373.345 104.156 375.5C106.811 378.138 112.228 376.753 116.834 375.575C118.87 375.054 120.747 374.574 122.156 374.5C131.656 374 139.156 372 135.656 368.5C133.503 366.346 130.909 365.223 128.189 364.046C125.39 362.834 122.458 361.564 119.734 359.055C119.346 358.697 119.044 358.255 118.891 357.749C116.82 350.896 120.69 335.319 123.65 323.408C124.658 319.35 125.56 315.717 126.086 313C130.113 292.196 126.708 276.346 124.335 265.299C123.172 259.885 122.257 255.625 122.586 252.5C123.084 247.772 123.913 244.576 124.779 241.239C126.371 235.102 128.086 228.491 128.086 211C128.086 198.179 125.069 188.177 122.369 179.227C119.383 169.328 116.785 160.715 119.086 151C120.611 144.562 119.149 139.965 118.072 136.579C117.895 136.021 117.728 135.495 117.586 135C116.586 131.5 115.586 125.5 117.086 123.5C119.296 120.554 121.776 116.524 123.529 113.206C124.002 112.312 125.688 112.486 126.123 113.399C127.168 115.59 128.743 117.296 130.08 118.743C131.596 120.383 132.804 121.691 132.586 123C132.237 135.812 139.408 142.372 144.497 147.029C145.056 147.54 145.59 148.029 146.086 148.5C153.974 155.994 156.644 161.571 158.1 164.613C158.49 165.428 158.793 166.061 159.086 166.5C158.83 167.661 158.669 172.487 161.221 179.063C162.733 182.958 166.479 185.665 170.655 185.522C177.218 185.296 178.978 182.244 178.586 179.5C178.242 177.091 177.524 175.586 176.716 173.892C176.185 172.78 175.615 171.586 175.086 170C174.916 169.489 175.326 169.791 175.981 170.272C177.247 171.204 179.427 172.807 180.086 170.5C180.855 167.808 173.253 163 169.086 161C168.363 159.191 166.437 155.212 165.249 153.261C165.142 153.085 165.044 152.905 164.963 152.716C162.547 147.111 161.082 141.23 159.919 136.56C159.438 134.632 159.009 132.91 158.586 131.5C157.257 127.071 152.79 121.464 148.659 118.157C147.696 117.386 147.041 116.274 146.911 115.048C145.819 104.714 142.581 100.162 140.491 97.2774C139.9 96.4618 139.679 95.4478 139.82 94.4506C142.003 79.0623 139.435 66.7922 127.086 61.5C125.592 60.8598 124.18 60.2575 122.845 59.6883C105.417 52.2562 101.22 50.4665 101.586 43.5C101.689 41.5423 102.724 38.9407 103.568 36.8168C104.018 35.686 104.414 34.6906 104.586 34C104.813 33.0931 105.467 32.41 106.209 31.6355C107.513 30.2751 109.086 28.6328 109.086 25C109.086 22.3387 108.596 21.3994 108.149 20.5439C107.639 19.5668 107.186 18.6991 107.586 15.5C108.584 7.51604 99.1243 0.0300755 90.1404 9.03849e-05V0C90.1313 0 90.1223 7.5376e-06 90.1133 2.26057e-05C90.1043 7.53765e-06 90.0952 0 90.0862 0V9.03849e-05C81.1023 0.0300755 71.6424 7.51604 72.6404 15.5C73.0402 18.6991 72.5873 19.5668 72.0772 20.5439C71.6307 21.3994 71.1404 22.3387 71.1404 25C71.1404 28.6328 72.7138 30.2751 74.0172 31.6355C74.7592 32.41 75.4136 33.0931 75.6404 34C75.813 34.6906 76.2088 35.686 76.6584 36.8168C77.5029 38.9407 78.5373 41.5423 78.6404 43.5C79.007 50.4665 74.81 52.2562 57.3813 59.6883C56.0465 60.2575 54.6342 60.8598 53.1404 61.5Z"></path>                

                <a class="Shoulders" href="{{ path('app_muscleGroup_details', {'id': 4}) }}">
                    <g>
                        <path class="Rear Delt" d="M44.5556 92.9433C47.5662 89.9242 52.1266 85.4686 60.0002 83.5002C65.654 82.0867 70.9446 78.5 70.5002 74.5002C69.8891 69 63.6952 68.3957 61.0002 66.0001C52.1251 58.1108 37.9016 75.0195 43.7417 92.7511C43.8563 93.099 44.2969 93.2026 44.5556 92.9433Z" fill="#7F8097"></path>
            
                    </g>
                </a>
            
                <a class="Back" href="{{ path('app_muscleGroup_details', {'id': 5}) }}">
                    <g>
                        <path class="Trapezius" d="M89 53.4999V38.6983C89 38.5709 88.952 38.4472 88.8615 38.3574C88.2638 37.7648 87.9523 37.7745 87.5313 38.4488C87.5104 38.4823 87.4946 38.5172 87.4825 38.5549C86.462 41.745 83.1701 48.523 78 52.5C73.0728 56.2902 64.0156 60.0803 59.6759 61.7436C59.3486 61.8691 59.2537 62.286 59.4983 62.5371C66.4388 69.6599 73.5782 62.5288 73.5 86.4999C73.4375 105.631 82.6449 116.68 88.2588 120.521C88.5804 120.741 89 120.502 89 120.112V71.5C89 64.0001 84 62.5 84 61C84 59.5 89 58.5 89 53.4999Z" fill="#7F8097"></path>
                
            
                        <path class="Teres Major" d="M71.8274 90.7613C71.8274 86.5769 71.8274 83.5903 71.3525 80.2529C71.2914 79.8236 70.7401 79.6797 70.4466 79.999C64.8464 86.0931 55.8032 85.6371 56.9999 87.5C61.6178 94.6892 71.8274 91.7384 71.8274 90.8237V90.7613Z" fill="#7F8097"></path>
                
                        
                        <path class="Lats" d="M71.3031 93.3248C64.9843 96.056 59.3244 92.7592 56.6712 90.2014C56.3782 89.9189 55.8758 90.0512 55.8043 90.4519C54.1725 99.5938 58.1777 114.825 64.0001 121C66.3114 123.451 67.9359 130.23 69.4124 135.678C69.4654 135.873 69.6275 136.019 69.8301 136.018C74.1262 135.991 87.6478 126.989 88.917 123.331C88.9847 123.136 88.8811 122.934 88.7029 122.83C77.7005 116.409 72.6802 100.451 72.0543 93.7612C72.0207 93.4011 71.635 93.1813 71.3031 93.3248Z" fill="#7F8097"></path>
                        
                    
                        <path class="Spinal Erectors" d="M89 160.806V127.274C89 126.819 88.4393 126.601 88.1257 126.93C82.631 132.695 78.6462 135.285 70.9054 137.866C70.6733 137.943 70.5276 138.178 70.5634 138.42C71.4528 144.42 71.4879 149.548 71.0699 153.401C71.0361 153.713 71.2932 153.981 71.6067 153.969C79.8562 153.657 85.339 157.935 87.8266 161.154C88.1517 161.575 89 161.338 89 160.806Z" fill="#7F8097"></path>
            
                    </g>
                </a>
            
                <a class="Triceps" href="{{ path('app_muscleGroup_details', {'id': 2}) }}">  
                    <g>
                        <path class="Long Head" d="M54.4652 106.735C53.7185 102.69 52.5671 93.5478 54.2391 88.842C54.2506 88.8097 54.2594 88.7765 54.2617 88.7424C54.3123 87.9821 52.9018 88.382 51.5764 90.0309C46.4397 96.4211 44.2257 108.685 45.0065 112.77C45.5768 115.753 41.496 120.004 41.4087 122.376C41.3967 122.699 41.7536 122.826 42.0132 122.632C46.3253 119.411 55.0737 110.031 54.4652 106.735Z" fill="#7F8097"></path>
                
                
                        <path class="Medial Head" d="M35.5106 111.223C36.3894 102.603 41.7053 97.778 45.3101 94.8062C45.7458 94.447 46.5258 95.0639 46.3005 95.5817C44.0772 100.691 42.6438 106.863 42.7165 110.254C42.7207 110.449 42.6174 110.63 42.4434 110.718C41.4344 111.226 40.4792 111.765 39.3265 116.571C38.8478 118.567 37.8437 121.382 34.8919 123.456C34.5937 123.666 34.1911 123.467 34.1573 123.104C33.6218 117.368 35.0051 116.182 35.5106 111.223Z" fill="#7F8097"></path>
                
                    </g>
                </a>
            
                <a class="Forearms" href="{{ path('app_muscleGroup_details', {'id': 8}) }}">
                    <g>
                        <path class="Flexors" d="M30.8577 147.793C38.4155 141.467 46.5085 132.203 46.0585 123.715C46.0401 123.367 45.6709 123.166 45.3682 123.337C41.5516 125.498 37.5681 129.947 36 132.5L35.9728 132.544C34.4841 134.968 30.7388 141.065 30.0823 147.391C30.0378 147.819 30.5269 148.069 30.8577 147.793Z" fill="#0F00E8 "></path>
                        
                        
                        <path class="Extensors" d="M14.0057 159.625C14.1332 161.053 16.4006 162.857 19.1702 162.992C19.37 163.002 19.5493 162.883 19.6343 162.702C21.3754 158.989 28 149.932 28 147.5C28 139.178 34.4952 135.592 31.6931 120.956C31.6168 120.558 31.1187 120.412 30.8448 120.711C28.4537 123.325 23.5876 128.974 22.5 135.5C21.3091 142.646 16.5724 154.65 14.0571 159.393C14.0185 159.466 13.9983 159.543 14.0057 159.625Z" fill="#3F6BF4 "></path>
                        
                    </g>
                </a>
            
                <a class="Abs" href="{{ path('app_muscleGroup_details', {'id': 6}) }}">
                    <g>
                        <path class="Obliques" d="M68.5001 154C69.7762 148.425 67.7844 137.448 66.2401 132.477C66.0836 131.973 65.4226 132.089 65.3446 132.611C64.7907 136.312 62.9246 138.755 62.5001 143C61.9823 148.178 64.0762 148.486 64.065 156.106C64.0642 156.647 64.9719 156.921 65.3681 156.552C66.8177 155.201 68.0621 155.913 68.5001 154Z" fill="#7F8097"></path>
                
                    </g>
                </a>
        
            </svg>