<svg id="Frontview" 
    class="mx-auto"
    xmlns="http://www.w3.org/2000/svg"
    width="80%" 
    viewBox="0 50 90 130" 
    fill="none">
        <path fill="#1b1b1b" fill-rule="evenodd" d="M54.07 62.5c-12.348 5.292-14.916 17.562-12.734 32.95.142.998-.08 2.012-.67 2.827-2.09 2.885-5.329 7.437-6.421 17.771-.13 1.226-.785 2.338-1.747 3.109-4.131 3.307-8.599 8.914-9.928 13.343-.423 1.41-.852 3.132-1.332 5.06-1.164 4.67-2.629 10.551-5.045 16.156a4.415 4.415 0 01-.285.545c-1.188 1.951-3.114 5.93-3.838 7.739-4.167 2-11.769 6.808-11 9.5.66 2.307 2.84.704 4.106-.228.654-.481 1.065-.783.894-.272-.528 1.586-1.098 2.78-1.63 3.892-.808 1.694-1.526 3.199-1.87 5.608-.392 2.744 1.368 5.796 7.931 6.022 4.176.143 7.922-2.564 9.434-6.459 2.552-6.576 2.391-11.402 2.135-12.563.293-.439.596-1.072.986-1.887 1.456-3.042 4.126-8.619 12.014-16.113.496-.471 1.03-.96 1.589-1.471 5.09-4.657 12.26-11.217 11.911-24.029-.218-1.309.99-2.617 2.506-4.257 1.337-1.447 2.912-3.153 3.957-5.344.435-.913 2.122-1.087 2.594-.193 1.753 3.318 4.234 7.348 6.443 10.294 1.5 2 .5 8-.5 11.5a57.638 57.638 0 01-.486 1.579c-1.077 3.386-2.539 7.983-1.014 14.421 2.301 9.715-.297 18.328-3.283 28.227-2.7 8.95-5.717 18.952-5.717 31.773 0 17.491 1.715 24.102 3.308 30.239.865 3.337 1.694 6.533 2.192 11.261.33 3.125-.586 7.385-1.749 12.799-2.373 11.047-5.777 26.897-1.75 47.701.521 2.698 1.427 6.215 2.428 10.103 3.081 11.967 7.068 27.452 3.571 33.397-3.229 5.489-8.114 8.673-12.39 11.459-2.345 1.529-4.506 2.937-6.11 4.541-3.5 3.5 12 6.5 25 2 3.22-1.115 4.733-1.086 5.9-1.063.871.017 1.55.03 2.6-.437 2.453-1.09 2.232-3.665 1.523-11.934-.591-6.903-1.523-17.776-1.523-35.066 0-2.723.966-5.535 2.088-8.801 1.555-4.53 3.412-9.936 3.412-17.199 0-8.601-1.583-15.443-2.663-20.108-.74-3.199-1.244-5.375-.837-6.392l.16-.398c1.713-4.251 5.872-14.569 6.84-44.102.049-1.476.55-4.781 1.183-8.963 1.298-8.566 3.153-20.809 2.817-28.537-.022-.508.815-.285 1.436-.12.208.055.391.104.51.117v.003l.027-.001.027.001v-.003c.12-.013.302-.062.51-.117.62-.165 1.458-.388 1.436.12-.336 7.728 1.52 19.971 2.817 28.537.634 4.182 1.135 7.487 1.183 8.963.968 29.533 5.127 39.851 6.84 44.102l.16.398c.407 1.017-.097 3.193-.837 6.392-1.08 4.665-2.663 11.507-2.663 20.108 0 7.263 1.857 12.669 3.413 17.199 1.122 3.266 2.087 6.078 2.087 8.801 0 17.29-.932 28.163-1.523 35.066-.709 8.269-.929 10.844 1.523 11.934 1.051.467 1.729.454 2.599.437 1.168-.023 2.681-.052 5.901 1.063 13 4.5 28.5 1.5 25-2-1.604-1.604-3.765-3.012-6.11-4.541-4.276-2.786-9.161-5.97-12.39-11.459-3.497-5.945.49-21.43 3.571-33.397 1.001-3.888 1.907-7.405 2.429-10.103 4.027-20.804.622-36.654-1.751-47.701-1.163-5.414-2.078-9.674-1.749-12.799.498-4.728 1.327-7.924 2.193-11.261 1.592-6.137 3.307-12.748 3.307-30.239 0-12.821-3.017-22.823-5.717-31.773-2.986-9.899-5.584-18.512-3.283-28.227 1.525-6.438.063-11.035-1.014-14.421-.177-.558-.344-1.084-.486-1.579-1-3.5-2-9.5-.5-11.5 2.209-2.946 4.69-6.976 6.443-10.294.472-.894 2.159-.72 2.594.193 1.045 2.191 2.62 3.897 3.957 5.344 1.515 1.64 2.724 2.948 2.506 4.257-.349 12.812 6.822 19.372 11.911 24.029.559.511 1.093 1 1.589 1.471 7.888 7.494 10.558 13.071 12.014 16.113.39.815.693 1.448.986 1.887-.256 1.161-.417 5.987 2.135 12.563 1.512 3.895 5.258 6.602 9.434 6.459 6.563-.226 8.323-3.278 7.931-6.022-.344-2.409-1.062-3.914-1.871-5.608-.531-1.112-1.1-2.306-1.629-3.892-.17-.511.24-.209.895.272 1.266.932 3.446 2.535 4.105.228.769-2.692-6.833-7.5-11-9.5-.724-1.809-2.65-5.788-3.838-7.739a4.344 4.344 0 01-.285-.545c-2.416-5.605-3.881-11.486-5.045-16.156-.48-1.928-.909-3.65-1.332-5.06-1.329-4.429-5.797-10.036-9.927-13.343-.963-.771-1.618-1.883-1.748-3.109-1.092-10.334-4.33-14.886-6.421-17.77-.591-.816-.811-1.83-.67-2.827 2.182-15.389-.386-27.659-12.734-32.951-1.494-.64-2.906-1.242-4.241-1.812-17.429-7.432-21.626-9.221-21.259-16.188.103-1.958 1.138-4.56 1.982-6.683.45-1.131.845-2.126 1.018-2.817.227-.907.881-1.59 1.623-2.364 1.304-1.36 2.877-3.003 2.877-6.636 0-2.661-.49-3.6-.937-4.456-.51-.977-.963-1.845-.563-5.044.998-7.984-8.462-15.47-17.446-15.5h-.054c-8.984.03-18.444 7.516-17.446 15.5.4 3.2-.053 4.067-.563 5.044-.447.855-.937 1.795-.937 4.456 0 3.633 1.574 5.275 2.877 6.636.742.774 1.396 1.457 1.623 2.364.173.69.569 1.686 1.018 2.817.845 2.124 1.88 4.725 1.982 6.683.367 6.967-3.83 8.756-21.259 16.188-1.335.57-2.747 1.172-4.24 1.812z" clip-rule="evenodd"></path>
        

        <a href="{{ path('app_muscleGroup_details', {'id': 1}) }}" class="Chest">
            <g>
                <path fill="#7F8097" d="M90.07 75v20.5c0 .276-.22.5-.497.503-3.26.03-10.191.359-15.503 1.497-7 1.5-11.5-2-13.5-5.5-1.493-2.612-5.008-3.338-7.192-3.474-.371-.023-.595-.407-.395-.72.966-1.502 3.14-4.534 4.587-7.306 6.29-12.045 12.9-14.197 16-14 2.22.142 11.1 2.8 13.5 4 2.4 1.2 3 3.5 3 4.5z" class="Pec"></path>
            </g>
        </a>
    
        <a href="{{ path('app_muscleGroup_details', {'id': 4}) }}" class="Shoulders - Front">
            <g>
                <path fill="#7F8097" d="M54.07 82.5c4.817-9.635 10.42-14.834 13.77-16.51.413-.207.44-.863.015-1.043-16.6-7.059-28.91 8.22-24.922 28.873a.48.48 0 00.724.325c3.453-2.192 8.05-6.918 10.413-11.645z" class="Shoulder"></path>
            </g>
        </a>
    
        <a href="{{ path('app_muscleGroup_details', {'id': 3}) }}" class="Biceps">
            <g>
                <path fill="#7F8097" d="M45.036 96.517c-6.712 3.34-13.664 30.128-3.966 28.483 2.822-.413 13.5-10.5 13-21-.5-3 3.682-10.874 1.5-12-4.181-2.158-5.991 1.333-10.467 4.477a.507.507 0 01-.067.04z" class="Bicep"></path>
            </g>
        </a>
        <a href="{{ path('app_muscleGroup_details', {'id': 8}) }}" class="Forearms - Front">
            <g>
                <path fill="#0F00E8" d="M23.57 137c0-5.564 5.716-12.651 8.78-14.382a.469.469 0 01.446-.002c2.75 1.417 3.583 2.146 1.704 11.884-2.754 14.27-19.193 25.834-17.96 23.062a.507.507 0 01.065-.105c2.507-3.06 6.965-13.987 6.965-20.457z" class="Forearm"></path>
                <path fill="#3F6BF4" d="M38.281 127.329c2.055.797 4.987.719 7.315-1.645.339-.345.993-.135.989.349-.05 5.391-1.356 11.825-11.015 20.467-9.284 8.307-12.837 15.658-13.928 17.388a.45.45 0 01-.197.171c-2.971 1.358-5.297-.25-6.123-1.21-.161-.188-.1-.466.097-.617 19.668-15.153 21.373-23.646 22.1-34.448.025-.365.422-.587.762-.455z" class="Forearm"></path>
            </g>
        </a>
        <a href="{{ path('app_muscleGroup_details', {'id': 5}) }}" class="Back - Front">
            <g>
                <path fill="#7F8097" d="M65.248 99.903c-1.626-.569-4.008-2.483-5.625-4.439-.324-.39-1.12-.167-1.202.333-.42 2.576-1.602 4.638-1.846 7.154a.501.501 0 000 .098c.807 7.725 4.294 13.788 7.172 17.07.294.335.802.119.746-.323-.358-2.844-1.803-4.828-.923-6.296 1.482-2.469 3.24-4.155 2.046-13.16a.55.55 0 00-.368-.437z" class="Lats"></path>
            </g>

            <g>
                <path fill="#7F8097" d="M91.07 70.5c-7.5-3.5-10.786-23.644-9.5-21.5 1.5 2.5 2 2 3.5 4s.5 11.112 6 16v1.5z" class="Neck"></path>
            </g>
            <g>
                <path fill="#7F8097" d="M79.57 52c-3.117 2.672-10.86 6.533-15.813 8.759-.466.209-.372.967.126 1.081C68.712 62.943 77.448 66 80.07 66c2.912 0 3.618-1 3-2.5-3.5-8.5-2.69-12.194-3.5-11.5z" class="Trap"></path>
            </g>
        </a>
        <a href="{{ path('app_muscleGroup_details', {'id': 6}) }}" class="Abdominals">
            <g class="LowerAbs">
                <path fill="#7F8097" d="M74.07 113c5.324-3.328 10.195-6.783 15.5-6.99a.516.516 0 00.5-.51v-6.849c0-.098-.025-.197-.1-.262-1.497-1.31-12.57.15-18.9 1.61-6.778 1.565-1 15.501 3 13.001zM90.07 120.399v-11.855a.484.484 0 00-.54-.487c-6.396.813-14.572 6.454-14.46 7.943.11 1.461 1.921 7.543 4 6.5 2.703-1.356 7.72-1.878 10.408-1.585a.53.53 0 00.592-.516z" class="LowerAb"></path>
            </g>
        </a>
        <a href="{{ path('app_muscleGroup_details', {'id': 6}) }}" class="Abdominals">
            <g class="LowerAbs">
                <path fill="#7F8097" d="M90.07 139.5v-16.205c0-.182-.098-.351-.274-.4-1.542-.435-6.701-.096-8.726 1.105-5.514 3.27-3.195 15.69 2 16 .683.041 4.366.006 6.501.001a.5.5 0 00.5-.501zM90.07 181.5v-39c0-.276-.223-.5-.5-.505-2.77-.047-8.53-.373-9 1.505-3.98 15.922 4.782 36.827 9.017 38.405.258.096.483-.129.483-.405z" class="LowerAb"></path>
                <path fill="#7F8097" d="M74.07 113c5.324-3.328 10.195-6.783 15.5-6.99a.516.516 0 00.5-.51v-6.849c0-.098-.025-.197-.1-.262-1.497-1.31-12.57.15-18.9 1.61-6.778 1.565-1 15.501 3 13.001zM90.07 120.399v-11.855a.484.484 0 00-.54-.487c-6.396.813-14.572 6.454-14.46 7.943.11 1.461 1.921 7.543 4 6.5 2.703-1.356 7.72-1.878 10.408-1.585a.53.53 0 00.592-.516z" class="LowerAb"></path>
            </g>
            <g class="Obliques">
                <path fill="#7F8097" d="M75.616 132.568c.088-6.644-1.512-15.459-9.105-17.372-.392-.099-.71.308-.568.686 1.297 3.428 1.868 8.975 1.627 11.618.022 1.196 4.467 2.899 7.059 5.421.34.33.98.12.987-.353z" class="Oblique"></path>
            </g>
        </a>
    </svg>

    