<svg id="Frontview" 
    class="mx-auto"
    xmlns="http://www.w3.org/2000/svg"
    width="80%" 
    viewBox="40 150 100 230" 
    fill="none">
        <path fill="#1b1b1b" fill-rule="evenodd" d="M54.07 62.5c-12.348 5.292-14.916 17.562-12.734 32.95.142.998-.08 2.012-.67 2.827-2.09 2.885-5.329 7.437-6.421 17.771-.13 1.226-.785 2.338-1.747 3.109-4.131 3.307-8.599 8.914-9.928 13.343-.423 1.41-.852 3.132-1.332 5.06-1.164 4.67-2.629 10.551-5.045 16.156a4.415 4.415 0 01-.285.545c-1.188 1.951-3.114 5.93-3.838 7.739-4.167 2-11.769 6.808-11 9.5.66 2.307 2.84.704 4.106-.228.654-.481 1.065-.783.894-.272-.528 1.586-1.098 2.78-1.63 3.892-.808 1.694-1.526 3.199-1.87 5.608-.392 2.744 1.368 5.796 7.931 6.022 4.176.143 7.922-2.564 9.434-6.459 2.552-6.576 2.391-11.402 2.135-12.563.293-.439.596-1.072.986-1.887 1.456-3.042 4.126-8.619 12.014-16.113.496-.471 1.03-.96 1.589-1.471 5.09-4.657 12.26-11.217 11.911-24.029-.218-1.309.99-2.617 2.506-4.257 1.337-1.447 2.912-3.153 3.957-5.344.435-.913 2.122-1.087 2.594-.193 1.753 3.318 4.234 7.348 6.443 10.294 1.5 2 .5 8-.5 11.5a57.638 57.638 0 01-.486 1.579c-1.077 3.386-2.539 7.983-1.014 14.421 2.301 9.715-.297 18.328-3.283 28.227-2.7 8.95-5.717 18.952-5.717 31.773 0 17.491 1.715 24.102 3.308 30.239.865 3.337 1.694 6.533 2.192 11.261.33 3.125-.586 7.385-1.749 12.799-2.373 11.047-5.777 26.897-1.75 47.701.521 2.698 1.427 6.215 2.428 10.103 3.081 11.967 7.068 27.452 3.571 33.397-3.229 5.489-8.114 8.673-12.39 11.459-2.345 1.529-4.506 2.937-6.11 4.541-3.5 3.5 12 6.5 25 2 3.22-1.115 4.733-1.086 5.9-1.063.871.017 1.55.03 2.6-.437 2.453-1.09 2.232-3.665 1.523-11.934-.591-6.903-1.523-17.776-1.523-35.066 0-2.723.966-5.535 2.088-8.801 1.555-4.53 3.412-9.936 3.412-17.199 0-8.601-1.583-15.443-2.663-20.108-.74-3.199-1.244-5.375-.837-6.392l.16-.398c1.713-4.251 5.872-14.569 6.84-44.102.049-1.476.55-4.781 1.183-8.963 1.298-8.566 3.153-20.809 2.817-28.537-.022-.508.815-.285 1.436-.12.208.055.391.104.51.117v.003l.027-.001.027.001v-.003c.12-.013.302-.062.51-.117.62-.165 1.458-.388 1.436.12-.336 7.728 1.52 19.971 2.817 28.537.634 4.182 1.135 7.487 1.183 8.963.968 29.533 5.127 39.851 6.84 44.102l.16.398c.407 1.017-.097 3.193-.837 6.392-1.08 4.665-2.663 11.507-2.663 20.108 0 7.263 1.857 12.669 3.413 17.199 1.122 3.266 2.087 6.078 2.087 8.801 0 17.29-.932 28.163-1.523 35.066-.709 8.269-.929 10.844 1.523 11.934 1.051.467 1.729.454 2.599.437 1.168-.023 2.681-.052 5.901 1.063 13 4.5 28.5 1.5 25-2-1.604-1.604-3.765-3.012-6.11-4.541-4.276-2.786-9.161-5.97-12.39-11.459-3.497-5.945.49-21.43 3.571-33.397 1.001-3.888 1.907-7.405 2.429-10.103 4.027-20.804.622-36.654-1.751-47.701-1.163-5.414-2.078-9.674-1.749-12.799.498-4.728 1.327-7.924 2.193-11.261 1.592-6.137 3.307-12.748 3.307-30.239 0-12.821-3.017-22.823-5.717-31.773-2.986-9.899-5.584-18.512-3.283-28.227 1.525-6.438.063-11.035-1.014-14.421-.177-.558-.344-1.084-.486-1.579-1-3.5-2-9.5-.5-11.5 2.209-2.946 4.69-6.976 6.443-10.294.472-.894 2.159-.72 2.594.193 1.045 2.191 2.62 3.897 3.957 5.344 1.515 1.64 2.724 2.948 2.506 4.257-.349 12.812 6.822 19.372 11.911 24.029.559.511 1.093 1 1.589 1.471 7.888 7.494 10.558 13.071 12.014 16.113.39.815.693 1.448.986 1.887-.256 1.161-.417 5.987 2.135 12.563 1.512 3.895 5.258 6.602 9.434 6.459 6.563-.226 8.323-3.278 7.931-6.022-.344-2.409-1.062-3.914-1.871-5.608-.531-1.112-1.1-2.306-1.629-3.892-.17-.511.24-.209.895.272 1.266.932 3.446 2.535 4.105.228.769-2.692-6.833-7.5-11-9.5-.724-1.809-2.65-5.788-3.838-7.739a4.344 4.344 0 01-.285-.545c-2.416-5.605-3.881-11.486-5.045-16.156-.48-1.928-.909-3.65-1.332-5.06-1.329-4.429-5.797-10.036-9.927-13.343-.963-.771-1.618-1.883-1.748-3.109-1.092-10.334-4.33-14.886-6.421-17.77-.591-.816-.811-1.83-.67-2.827 2.182-15.389-.386-27.659-12.734-32.951-1.494-.64-2.906-1.242-4.241-1.812-17.429-7.432-21.626-9.221-21.259-16.188.103-1.958 1.138-4.56 1.982-6.683.45-1.131.845-2.126 1.018-2.817.227-.907.881-1.59 1.623-2.364 1.304-1.36 2.877-3.003 2.877-6.636 0-2.661-.49-3.6-.937-4.456-.51-.977-.963-1.845-.563-5.044.998-7.984-8.462-15.47-17.446-15.5h-.054c-8.984.03-18.444 7.516-17.446 15.5.4 3.2-.053 4.067-.563 5.044-.447.855-.937 1.795-.937 4.456 0 3.633 1.574 5.275 2.877 6.636.742.774 1.396 1.457 1.623 2.364.173.69.569 1.686 1.018 2.817.845 2.124 1.88 4.725 1.982 6.683.367 6.967-3.83 8.756-21.259 16.188-1.335.57-2.747 1.172-4.24 1.812z" clip-rule="evenodd"></path>
        

        
        <a href="{{ path('app_muscleGroup_details', {'id': 6}) }}" class="Abdominals">
            <g class="LowerAbs">
                <path fill="#7F8097" d="M90.07 139.5v-16.205c0-.182-.098-.351-.274-.4-1.542-.435-6.701-.096-8.726 1.105-5.514 3.27-3.195 15.69 2 16 .683.041 4.366.006 6.501.001a.5.5 0 00.5-.501zM90.07 181.5v-39c0-.276-.223-.5-.5-.505-2.77-.047-8.53-.373-9 1.505-3.98 15.922 4.782 36.827 9.017 38.405.258.096.483-.129.483-.405z" class="LowerAb"></path>
                <path fill="#7F8097" d="M92.07 139.5v-16.205c0-.182.099-.351.274-.4 1.542-.435 6.702-.096 8.726 1.105 5.515 3.27 3.195 15.69-2 16-.683.041-4.366.006-6.501.001a.5.5 0 01-.499-.501zM92.07 181.5v-39c0-.276.224-.5.5-.505 2.77-.047 8.531-.373 9 1.505 3.981 15.922-4.781 36.827-9.016 38.405-.259.096-.484-.129-.484-.405z" class="LowerAb"></path>              
                <path fill="#7F8097" d="M74.07 113c5.324-3.328 10.195-6.783 15.5-6.99a.516.516 0 00.5-.51v-6.849c0-.098-.025-.197-.1-.262-1.497-1.31-12.57.15-18.9 1.61-6.778 1.565-1 15.501 3 13.001zM90.07 120.399v-11.855a.484.484 0 00-.54-.487c-6.396.813-14.572 6.454-14.46 7.943.11 1.461 1.921 7.543 4 6.5 2.703-1.356 7.72-1.878 10.408-1.585a.53.53 0 00.592-.516z" class="LowerAb"></path>
                <path fill="#7F8097" d="M108.07 113c-5.324-3.328-10.195-6.783-15.5-6.99a.516.516 0 01-.5-.51v-6.849c0-.098.026-.197.1-.262 1.498-1.31 12.57.15 18.9 1.61 6.779 1.565 1 15.501-3 13.001zM92.07 120.399v-11.855c0-.293.25-.524.54-.487 6.396.813 14.572 6.454 14.46 7.943-.11 1.461-1.921 7.543-4 6.5-2.702-1.356-7.719-1.878-10.407-1.585a.53.53 0 01-.593-.516z" class="LowerAb"></path>
            </g>
            <g class="Obliques">
                <path fill="#7F8097" d="M64.275 140.654c-1.21 2.972-1.226 7.048-.705 9.346 3.042 8.325 7.156 12.647 11.461 14.749a.455.455 0 00.657-.329c.689-4.238-1.302-12.594-2.118-13.92-2.686-4.367-5.95-7.323-8.505-9.98-.242-.251-.659-.189-.79.134z" class="Oblique"></path>
                <path fill="#7F8097" d="M117.865 140.654c1.211 2.972 1.226 7.048.705 9.346-3.042 8.325-7.155 12.647-11.461 14.749a.455.455 0 01-.657-.329c-.688-4.238 1.302-12.594 2.118-13.92 2.687-4.367 5.95-7.323 8.506-9.98.241-.251.658-.189.789.134z" class="Oblique"></path>
                <path fill="#7F8097" d="M74.685 145.825c.296-1.725.25-5.619.315-7.325.104-2.72-4.412-5.435-7.782-7.584a.529.529 0 00-.793.339c-.522 2.385-1.662 5.393-.355 6.745 3.007 3.111 5.121 5.122 7.938 7.996.24.246.619.168.677-.171z" class="Oblique"></path>
                <path fill="#7F8097" d="M107.456 145.825c-.296-1.725-.25-5.619-.316-7.325-.104-2.72 4.412-5.435 7.783-7.584a.528.528 0 01.792.339c.523 2.385 1.662 5.393.355 6.745-3.006 3.111-5.121 5.122-7.938 7.996-.24.246-.618.168-.676-.171z" class="Oblique"></path>
                <path fill="#7F8097" d="M75.616 132.568c.088-6.644-1.512-15.459-9.105-17.372-.392-.099-.71.308-.568.686 1.297 3.428 1.868 8.975 1.627 11.618.022 1.196 4.467 2.899 7.059 5.421.34.33.98.12.987-.353z" class="Oblique"></path>
                <path fill="#7F8097" d="M106.525 132.568c-.088-6.644 1.511-15.459 9.105-17.372.392-.099.71.308.567.686-1.296 3.428-1.868 8.975-1.627 11.618-.022 1.196-4.467 2.899-7.059 5.421-.339.33-.98.12-.986-.353z" class="Oblique"></path>
            </g>
        </a>
         {# LOWER BODY #}
         <a href="{{ path('app_muscleGroup_details', {'id': 7}) }}" class="Legs - Front">
            <g>
                <path fill="#1359BB" d="M69.732 165.438c-5.46 7.322-7.972 22.904-11.564 27.424-.241.304-.67.155-.675-.233-.069-5.762 7.077-19.057 7.153-31.3.003-.538.838-.786 1.15-.347 1.334 1.88 2.675 2.954 3.808 3.714a.52.52 0 01.128.742z" class="Adductor"></path>
                <path fill="#1359BB" d="M112.408 165.438c5.46 7.322 7.973 22.904 11.564 27.424.242.304.671.155.675-.233.069-5.762-7.077-19.057-7.152-31.3-.004-.538-.839-.786-1.151-.347-1.334 1.88-2.675 2.954-3.807 3.714a.52.52 0 00-.129.742z" class="Adductor"></path>
            </g>

            <g>
                <path fill="#1B76F8" d="M86.57 190.5c-1.757-2.117-5.019-7.298-7.086-10.671-.29-.473-1.043-.181-.955.367 2.808 17.482.553 24.152 1.541 25.804 2.274 3.803 2.495 6.438 3.466 12.775.021.141.112.301.252.273 2.15-.426 3.959-27.13 2.782-28.548z" class="Abductor"></path>
                <path fill="#1B76F8" d="M95.57 190.5c1.757-2.117 5.019-7.298 7.086-10.671.291-.473 1.043-.181.955.367-2.808 17.482-.553 24.152-1.541 25.804-2.273 3.803-2.495 6.438-3.465 12.775-.022.141-.112.301-.253.273-2.15-.426-3.959-27.13-2.782-28.548z" class="Abductor"></path>
            </g>

            <g>
                <path fill="#8E4CED" d="M63.07 248.5c-8.66-4.66-10.87-48.277-3.233-54.987.294-.259.699-.014.67.376-.615 8.076-2.794 26.831 1.563 37.111 5.432 12.813 2.618 18.37 1 17.5z" class="Quad"></path>
                <path fill="#8E4CED" d="M119.07 248.5c8.661-4.66 10.87-48.277 3.234-54.987-.294-.259-.7-.014-.67.376.615 8.076 2.794 26.831-1.564 37.111-5.431 12.813-2.617 18.37-1 17.5z" class="Quad"></path>
                <path fill="#5813BB" d="M72.37 167.334c7.148 8.764 6.557 67.573-4.136 68.654a.425.425 0 01-.295-.078c-10.216-7.27-5.925-58.782 3.8-68.595.188-.189.464-.187.632.019z" class="Quad"></path>
                <path fill="#5813BB" d="M109.77 167.334c-7.148 8.764-6.557 67.573 4.136 68.654a.426.426 0 00.295-.078c10.217-7.27 5.926-58.782-3.8-68.595-.188-.189-.463-.187-.631.019z" class="Quad"></path>
                <path fill="#8E4CED" d="M83.07 230.5c0-3.751-1.737-14.103-3.184-19.472-.144-.534-.788-.421-.798.132-.148 8.331-2.127 20.653-7.518 27.84-5.109 6.812-4 16 3.5 18s8-19.482 8-26.5z" class="Quad"></path>
                <path fill="#8E4CED" d="M99.07 230.5c0-3.751 1.737-14.103 3.184-19.472.144-.534.789-.421.798.132.148 8.331 2.128 20.653 7.518 27.84 5.109 6.812 4 16-3.5 18s-8-19.482-8-26.5z" class="Quad"></path>
            </g>
            <g>
                <path fill="#54EA43 " d="M63.57 289.5c-2.748-3.573-3.831-6.941-5.162-12.945-.105-.477-.73-.539-.88-.073-3.42 10.701-2.893 37.229 3.542 51.018 3.5 7.5 6.5 23.5 7.5 21s0-52.5-5-59z" class="calf"></path>
                <path fill="#54EA43  " d="M118.57 289.5c2.749-3.573 3.832-6.941 5.162-12.945.106-.477.731-.539.88-.073 3.42 10.701 2.893 37.229-3.542 51.018-3.5 7.5-6.5 23.5-7.5 21s0-52.5 5-59z" class="calf"></path>
                <path fill="#226A1A " d="M76.228 317.593c5.373-14.094 2.805-29.416.694-36.477-.126-.422-.592-.438-.68-.006-1.299 6.326-2.016 33.402-.45 36.589.11.224.347.127.436-.106z" class="calf"></path>
                <path fill="#226A1A " d="M105.913 317.593c-5.374-14.094-2.805-29.416-.695-36.477.127-.422.592-.438.681-.006 1.298 6.326 2.016 33.402.449 36.589-.11.224-.346.127-.435-.106z" class="calf"></path>
            </g>
        </a>
    </svg>
