<svg id="Frontview" 
    class="mx-auto"
    xmlns="http://www.w3.org/2000/svg"
    width="80%" 
    viewBox="0 150 200 300" 
    fill="none">
        <path fill="#1b1b1b" fill-rule="evenodd" d="M54.07 62.5c-12.348 5.292-14.916 17.562-12.734 32.95.142.998-.08 2.012-.67 2.827-2.09 2.885-5.329 7.437-6.421 17.771-.13 1.226-.785 2.338-1.747 3.109-4.131 3.307-8.599 8.914-9.928 13.343-.423 1.41-.852 3.132-1.332 5.06-1.164 4.67-2.629 10.551-5.045 16.156a4.415 4.415 0 01-.285.545c-1.188 1.951-3.114 5.93-3.838 7.739-4.167 2-11.769 6.808-11 9.5.66 2.307 2.84.704 4.106-.228.654-.481 1.065-.783.894-.272-.528 1.586-1.098 2.78-1.63 3.892-.808 1.694-1.526 3.199-1.87 5.608-.392 2.744 1.368 5.796 7.931 6.022 4.176.143 7.922-2.564 9.434-6.459 2.552-6.576 2.391-11.402 2.135-12.563.293-.439.596-1.072.986-1.887 1.456-3.042 4.126-8.619 12.014-16.113.496-.471 1.03-.96 1.589-1.471 5.09-4.657 12.26-11.217 11.911-24.029-.218-1.309.99-2.617 2.506-4.257 1.337-1.447 2.912-3.153 3.957-5.344.435-.913 2.122-1.087 2.594-.193 1.753 3.318 4.234 7.348 6.443 10.294 1.5 2 .5 8-.5 11.5a57.638 57.638 0 01-.486 1.579c-1.077 3.386-2.539 7.983-1.014 14.421 2.301 9.715-.297 18.328-3.283 28.227-2.7 8.95-5.717 18.952-5.717 31.773 0 17.491 1.715 24.102 3.308 30.239.865 3.337 1.694 6.533 2.192 11.261.33 3.125-.586 7.385-1.749 12.799-2.373 11.047-5.777 26.897-1.75 47.701.521 2.698 1.427 6.215 2.428 10.103 3.081 11.967 7.068 27.452 3.571 33.397-3.229 5.489-8.114 8.673-12.39 11.459-2.345 1.529-4.506 2.937-6.11 4.541-3.5 3.5 12 6.5 25 2 3.22-1.115 4.733-1.086 5.9-1.063.871.017 1.55.03 2.6-.437 2.453-1.09 2.232-3.665 1.523-11.934-.591-6.903-1.523-17.776-1.523-35.066 0-2.723.966-5.535 2.088-8.801 1.555-4.53 3.412-9.936 3.412-17.199 0-8.601-1.583-15.443-2.663-20.108-.74-3.199-1.244-5.375-.837-6.392l.16-.398c1.713-4.251 5.872-14.569 6.84-44.102.049-1.476.55-4.781 1.183-8.963 1.298-8.566 3.153-20.809 2.817-28.537-.022-.508.815-.285 1.436-.12.208.055.391.104.51.117v.003l.027-.001.027.001v-.003c.12-.013.302-.062.51-.117.62-.165 1.458-.388 1.436.12-.336 7.728 1.52 19.971 2.817 28.537.634 4.182 1.135 7.487 1.183 8.963.968 29.533 5.127 39.851 6.84 44.102l.16.398c.407 1.017-.097 3.193-.837 6.392-1.08 4.665-2.663 11.507-2.663 20.108 0 7.263 1.857 12.669 3.413 17.199 1.122 3.266 2.087 6.078 2.087 8.801 0 17.29-.932 28.163-1.523 35.066-.709 8.269-.929 10.844 1.523 11.934 1.051.467 1.729.454 2.599.437 1.168-.023 2.681-.052 5.901 1.063 13 4.5 28.5 1.5 25-2-1.604-1.604-3.765-3.012-6.11-4.541-4.276-2.786-9.161-5.97-12.39-11.459-3.497-5.945.49-21.43 3.571-33.397 1.001-3.888 1.907-7.405 2.429-10.103 4.027-20.804.622-36.654-1.751-47.701-1.163-5.414-2.078-9.674-1.749-12.799.498-4.728 1.327-7.924 2.193-11.261 1.592-6.137 3.307-12.748 3.307-30.239 0-12.821-3.017-22.823-5.717-31.773-2.986-9.899-5.584-18.512-3.283-28.227 1.525-6.438.063-11.035-1.014-14.421-.177-.558-.344-1.084-.486-1.579-1-3.5-2-9.5-.5-11.5 2.209-2.946 4.69-6.976 6.443-10.294.472-.894 2.159-.72 2.594.193 1.045 2.191 2.62 3.897 3.957 5.344 1.515 1.64 2.724 2.948 2.506 4.257-.349 12.812 6.822 19.372 11.911 24.029.559.511 1.093 1 1.589 1.471 7.888 7.494 10.558 13.071 12.014 16.113.39.815.693 1.448.986 1.887-.256 1.161-.417 5.987 2.135 12.563 1.512 3.895 5.258 6.602 9.434 6.459 6.563-.226 8.323-3.278 7.931-6.022-.344-2.409-1.062-3.914-1.871-5.608-.531-1.112-1.1-2.306-1.629-3.892-.17-.511.24-.209.895.272 1.266.932 3.446 2.535 4.105.228.769-2.692-6.833-7.5-11-9.5-.724-1.809-2.65-5.788-3.838-7.739a4.344 4.344 0 01-.285-.545c-2.416-5.605-3.881-11.486-5.045-16.156-.48-1.928-.909-3.65-1.332-5.06-1.329-4.429-5.797-10.036-9.927-13.343-.963-.771-1.618-1.883-1.748-3.109-1.092-10.334-4.33-14.886-6.421-17.77-.591-.816-.811-1.83-.67-2.827 2.182-15.389-.386-27.659-12.734-32.951-1.494-.64-2.906-1.242-4.241-1.812-17.429-7.432-21.626-9.221-21.259-16.188.103-1.958 1.138-4.56 1.982-6.683.45-1.131.845-2.126 1.018-2.817.227-.907.881-1.59 1.623-2.364 1.304-1.36 2.877-3.003 2.877-6.636 0-2.661-.49-3.6-.937-4.456-.51-.977-.963-1.845-.563-5.044.998-7.984-8.462-15.47-17.446-15.5h-.054c-8.984.03-18.444 7.516-17.446 15.5.4 3.2-.053 4.067-.563 5.044-.447.855-.937 1.795-.937 4.456 0 3.633 1.574 5.275 2.877 6.636.742.774 1.396 1.457 1.623 2.364.173.69.569 1.686 1.018 2.817.845 2.124 1.88 4.725 1.982 6.683.367 6.967-3.83 8.756-21.259 16.188-1.335.57-2.747 1.172-4.24 1.812z" clip-rule="evenodd"></path>
        

        
        <a href="{{ path('app_muscleGroup_details', {'id': 6}) }}" class="Abdominals">
            <g class="LowerAbs">
                <path fill="#7F8097" d="M90.07 139.5v-16.205c0-.182-.098-.351-.274-.4-1.542-.435-6.701-.096-8.726 1.105-5.514 3.27-3.195 15.69 2 16 .683.041 4.366.006 6.501.001a.5.5 0 00.5-.501zM90.07 181.5v-39c0-.276-.223-.5-.5-.505-2.77-.047-8.53-.373-9 1.505-3.98 15.922 4.782 36.827 9.017 38.405.258.096.483-.129.483-.405z" class="LowerAb"></path>
                <path fill="#7F8097" d="M92.07 139.5v-16.205c0-.182.099-.351.274-.4 1.542-.435 6.702-.096 8.726 1.105 5.515 3.27 3.195 15.69-2 16-.683.041-4.366.006-6.501.001a.5.5 0 01-.499-.501zM92.07 181.5v-39c0-.276.224-.5.5-.505 2.77-.047 8.531-.373 9 1.505 3.981 15.922-4.781 36.827-9.016 38.405-.259.096-.484-.129-.484-.405z" class="LowerAb"></path>              
                <path fill="#7F8097" d="M74.07 113c5.324-3.328 10.195-6.783 15.5-6.99a.516.516 0 00.5-.51v-6.849c0-.098-.025-.197-.1-.262-1.497-1.31-12.57.15-18.9 1.61-6.778 1.565-1 15.501 3 13.001zM90.07 120.399v-11.855a.484.484 0 00-.54-.487c-6.396.813-14.572 6.454-14.46 7.943.11 1.461 1.921 7.543 4 6.5 2.703-1.356 7.72-1.878 10.408-1.585a.53.53 0 00.592-.516z" class="LowerAb"></path>
                <path fill="#7F8097" d="M108.07 113c-5.324-3.328-10.195-6.783-15.5-6.99a.516.516 0 01-.5-.51v-6.849c0-.098.026-.197.1-.262 1.498-1.31 12.57.15 18.9 1.61 6.779 1.565 1 15.501-3 13.001zM92.07 120.399v-11.855c0-.293.25-.524.54-.487 6.396.813 14.572 6.454 14.46 7.943-.11 1.461-1.921 7.543-4 6.5-2.702-1.356-7.719-1.878-10.407-1.585a.53.53 0 01-.593-.516z" class="LowerAb"></path>
            </g>
            <g class="Obliques">
                <path fill="#7F8097" d="M64.275 140.654c-1.21 2.972-1.226 7.048-.705 9.346 3.042 8.325 7.156 12.647 11.461 14.749a.455.455 0 00.657-.329c.689-4.238-1.302-12.594-2.118-13.92-2.686-4.367-5.95-7.323-8.505-9.98-.242-.251-.659-.189-.79.134z" class="Oblique"></path>
                <path fill="#7F8097" d="M117.865 140.654c1.211 2.972 1.226 7.048.705 9.346-3.042 8.325-7.155 12.647-11.461 14.749a.455.455 0 01-.657-.329c-.688-4.238 1.302-12.594 2.118-13.92 2.687-4.367 5.95-7.323 8.506-9.98.241-.251.658-.189.789.134z" class="Oblique"></path>
                <path fill="#7F8097" d="M74.685 145.825c.296-1.725.25-5.619.315-7.325.104-2.72-4.412-5.435-7.782-7.584a.529.529 0 00-.793.339c-.522 2.385-1.662 5.393-.355 6.745 3.007 3.111 5.121 5.122 7.938 7.996.24.246.619.168.677-.171z" class="Oblique"></path>
                <path fill="#7F8097" d="M107.456 145.825c-.296-1.725-.25-5.619-.316-7.325-.104-2.72 4.412-5.435 7.783-7.584a.528.528 0 01.792.339c.523 2.385 1.662 5.393.355 6.745-3.006 3.111-5.121 5.122-7.938 7.996-.24.246-.618.168-.676-.171z" class="Oblique"></path>
                <path fill="#7F8097" d="M75.616 132.568c.088-6.644-1.512-15.459-9.105-17.372-.392-.099-.71.308-.568.686 1.297 3.428 1.868 8.975 1.627 11.618.022 1.196 4.467 2.899 7.059 5.421.34.33.98.12.987-.353z" class="Oblique"></path>
                <path fill="#7F8097" d="M106.525 132.568c-.088-6.644 1.511-15.459 9.105-17.372.392-.099.71.308.567.686-1.296 3.428-1.868 8.975-1.627 11.618-.022 1.196-4.467 2.899-7.059 5.421-.339.33-.98.12-.986-.353z" class="Oblique"></path>
            </g>
        </a>
         {# LOWER BODY #}
         <a href="{{ path('app_muscleGroup_details', {'id': 7}) }}" class="Legs - Front">
            <g>
                <path fill="#1359BB" d="M69.732 165.438c-5.46 7.322-7.972 22.904-11.564 27.424-.241.304-.67.155-.675-.233-.069-5.762 7.077-19.057 7.153-31.3.003-.538.838-.786 1.15-.347 1.334 1.88 2.675 2.954 3.808 3.714a.52.52 0 01.128.742z" class="Adductor"></path>
                <path fill="#1359BB" d="M112.408 165.438c5.46 7.322 7.973 22.904 11.564 27.424.242.304.671.155.675-.233.069-5.762-7.077-19.057-7.152-31.3-.004-.538-.839-.786-1.151-.347-1.334 1.88-2.675 2.954-3.807 3.714a.52.52 0 00-.129.742z" class="Adductor"></path>
            </g>

            <g>
                <path fill="#1B76F8" d="M86.57 190.5c-1.757-2.117-5.019-7.298-7.086-10.671-.29-.473-1.043-.181-.955.367 2.808 17.482.553 24.152 1.541 25.804 2.274 3.803 2.495 6.438 3.466 12.775.021.141.112.301.252.273 2.15-.426 3.959-27.13 2.782-28.548z" class="Abductor"></path>
                <path fill="#1B76F8" d="M95.57 190.5c1.757-2.117 5.019-7.298 7.086-10.671.291-.473 1.043-.181.955.367-2.808 17.482-.553 24.152-1.541 25.804-2.273 3.803-2.495 6.438-3.465 12.775-.022.141-.112.301-.253.273-2.15-.426-3.959-27.13-2.782-28.548z" class="Abductor"></path>
            </g>

            <g>
                <path fill="#8E4CED" d="M63.07 248.5c-8.66-4.66-10.87-48.277-3.233-54.987.294-.259.699-.014.67.376-.615 8.076-2.794 26.831 1.563 37.111 5.432 12.813 2.618 18.37 1 17.5z" class="Quad"></path>
                <path fill="#8E4CED" d="M119.07 248.5c8.661-4.66 10.87-48.277 3.234-54.987-.294-.259-.7-.014-.67.376.615 8.076 2.794 26.831-1.564 37.111-5.431 12.813-2.617 18.37-1 17.5z" class="Quad"></path>
                <path fill="#5813BB" d="M72.37 167.334c7.148 8.764 6.557 67.573-4.136 68.654a.425.425 0 01-.295-.078c-10.216-7.27-5.925-58.782 3.8-68.595.188-.189.464-.187.632.019z" class="Quad"></path>
                <path fill="#5813BB" d="M109.77 167.334c-7.148 8.764-6.557 67.573 4.136 68.654a.426.426 0 00.295-.078c10.217-7.27 5.926-58.782-3.8-68.595-.188-.189-.463-.187-.631.019z" class="Quad"></path>
                <path fill="#8E4CED" d="M83.07 230.5c0-3.751-1.737-14.103-3.184-19.472-.144-.534-.788-.421-.798.132-.148 8.331-2.127 20.653-7.518 27.84-5.109 6.812-4 16 3.5 18s8-19.482 8-26.5z" class="Quad"></path>
                <path fill="#8E4CED" d="M99.07 230.5c0-3.751 1.737-14.103 3.184-19.472.144-.534.789-.421.798.132.148 8.331 2.128 20.653 7.518 27.84 5.109 6.812 4 16-3.5 18s-8-19.482-8-26.5z" class="Quad"></path>
            </g>
            <g>
                <path fill="#54EA43 " d="M63.57 289.5c-2.748-3.573-3.831-6.941-5.162-12.945-.105-.477-.73-.539-.88-.073-3.42 10.701-2.893 37.229 3.542 51.018 3.5 7.5 6.5 23.5 7.5 21s0-52.5-5-59z" class="calf"></path>
                <path fill="#54EA43  " d="M118.57 289.5c2.749-3.573 3.832-6.941 5.162-12.945.106-.477.731-.539.88-.073 3.42 10.701 2.893 37.229-3.542 51.018-3.5 7.5-6.5 23.5-7.5 21s0-52.5 5-59z" class="calf"></path>
                <path fill="#226A1A " d="M76.228 317.593c5.373-14.094 2.805-29.416.694-36.477-.126-.422-.592-.438-.68-.006-1.299 6.326-2.016 33.402-.45 36.589.11.224.347.127.436-.106z" class="calf"></path>
                <path fill="#226A1A " d="M105.913 317.593c-5.374-14.094-2.805-29.416-.695-36.477.127-.422.592-.438.681-.006 1.298 6.326 2.016 33.402.449 36.589-.11.224-.346.127-.435-.106z" class="calf"></path>
            </g>
        </a>
    </svg>

    <svg id="Backview" 
            class="mx-auto"
            xmlns="http://www.w3.org/2000/svg" 
            width="80%" 
            viewBox="0 150 200 300" 
            fill="none">
                  
                <path fill="#1b1b1b" fill-rule="evenodd" clip-rule="evenodd" d="M53.1404 61.5C40.792 66.7922 38.224 79.0623 40.4064 94.4506C40.5478 95.4478 40.327 96.4618 39.736 97.2774C37.6454 100.162 34.4073 104.714 33.3152 115.048C33.1856 116.274 32.5304 117.386 31.5678 118.157C27.4369 121.464 22.9691 127.071 21.6404 131.5C21.2173 132.91 20.7884 134.632 20.308 136.56C19.1446 141.23 17.6793 147.111 15.2636 152.716C15.1821 152.905 15.085 153.085 14.9779 153.261C13.79 155.212 11.8639 159.191 11.1404 161C6.97369 163 -0.628819 167.808 0.140394 170.5C0.799578 172.807 2.97963 171.204 4.2458 170.272C4.90043 169.791 5.31077 169.489 5.14035 170C4.6118 171.586 4.04192 172.78 3.51102 173.892C2.70257 175.586 1.98449 177.091 1.64038 179.5C1.24833 182.244 3.00817 185.296 9.57141 185.522C13.7474 185.665 17.4934 182.958 19.0052 179.063C21.5573 172.487 21.3966 167.661 21.1404 166.5C21.4332 166.061 21.7362 165.428 22.1262 164.613C23.5826 161.571 26.2524 155.994 34.1403 148.5C34.6363 148.029 35.1702 147.54 35.7291 147.029C40.8185 142.372 47.9893 135.812 47.6404 123C47.4223 121.691 48.631 120.383 50.1464 118.743C51.4831 117.296 53.0584 115.59 54.1034 113.399C54.5385 112.486 56.2251 112.312 56.6973 113.206C58.4505 116.524 60.931 120.554 63.1404 123.5C64.6404 125.5 63.6404 131.5 62.6404 135C62.4988 135.495 62.3317 136.021 62.1541 136.579C61.0772 139.965 59.6155 144.562 61.1404 151C63.4414 160.715 60.8435 169.328 57.8575 179.227C55.1576 188.177 52.1404 198.179 52.1404 211C52.1404 228.491 53.8555 235.102 55.4478 241.239C56.3134 244.576 57.1427 247.772 57.6404 252.5C57.9693 255.625 57.0541 259.885 55.8912 265.299C53.5183 276.346 50.1138 292.196 54.1404 313C54.6663 315.717 55.5688 319.35 56.577 323.408C59.5364 335.319 63.4066 350.896 61.3358 357.749C61.183 358.255 60.8808 358.697 60.4925 359.055C57.7689 361.564 54.8366 362.834 52.0378 364.046C49.3179 365.223 46.724 366.346 44.5702 368.5C41.0702 372 48.5702 374 58.0702 374.5C59.4799 374.574 61.3569 375.054 63.3925 375.575C67.9982 376.753 73.4159 378.138 76.0702 375.5C78.239 373.345 77.986 370.845 77.3534 364.595C76.6688 357.83 75.5394 346.671 76.5548 326.798C76.5647 326.605 76.588 326.407 76.6288 326.218C76.902 324.949 77.3495 323.439 77.8665 321.693C79.4088 316.486 81.5702 309.188 81.5702 300C81.5702 291.435 79.9726 284.778 78.887 280.255C78.1347 277.12 77.6284 275.01 78.0702 274C81.5702 266 83.7038 260.727 85.0702 230C85.1311 228.63 85.4893 225.782 85.9451 222.157C86.9937 213.82 88.5591 201.374 88.2105 193.358C88.186 192.794 89.1792 192.903 89.7826 192.969C89.9031 192.983 90.008 192.994 90.0862 192.998V193C90.0947 193 90.1038 193 90.1133 193C90.1228 193 90.1318 193 90.1404 193V192.998C90.2185 192.994 90.3235 192.983 90.444 192.969C91.0474 192.903 92.0406 192.794 92.016 193.358C91.6675 201.374 93.2328 213.82 94.2815 222.157C94.7373 225.782 95.0955 228.63 95.1564 230C96.5227 260.727 98.6564 266 102.156 274C102.598 275.01 102.092 277.12 101.34 280.255C100.254 284.778 98.6564 291.435 98.6564 300C98.6564 309.188 100.818 316.486 102.36 321.693C102.877 323.439 103.325 324.949 103.598 326.218C103.639 326.407 103.662 326.605 103.672 326.798C104.687 346.671 103.558 357.83 102.873 364.595C102.241 370.845 101.988 373.345 104.156 375.5C106.811 378.138 112.228 376.753 116.834 375.575C118.87 375.054 120.747 374.574 122.156 374.5C131.656 374 139.156 372 135.656 368.5C133.503 366.346 130.909 365.223 128.189 364.046C125.39 362.834 122.458 361.564 119.734 359.055C119.346 358.697 119.044 358.255 118.891 357.749C116.82 350.896 120.69 335.319 123.65 323.408C124.658 319.35 125.56 315.717 126.086 313C130.113 292.196 126.708 276.346 124.335 265.299C123.172 259.885 122.257 255.625 122.586 252.5C123.084 247.772 123.913 244.576 124.779 241.239C126.371 235.102 128.086 228.491 128.086 211C128.086 198.179 125.069 188.177 122.369 179.227C119.383 169.328 116.785 160.715 119.086 151C120.611 144.562 119.149 139.965 118.072 136.579C117.895 136.021 117.728 135.495 117.586 135C116.586 131.5 115.586 125.5 117.086 123.5C119.296 120.554 121.776 116.524 123.529 113.206C124.002 112.312 125.688 112.486 126.123 113.399C127.168 115.59 128.743 117.296 130.08 118.743C131.596 120.383 132.804 121.691 132.586 123C132.237 135.812 139.408 142.372 144.497 147.029C145.056 147.54 145.59 148.029 146.086 148.5C153.974 155.994 156.644 161.571 158.1 164.613C158.49 165.428 158.793 166.061 159.086 166.5C158.83 167.661 158.669 172.487 161.221 179.063C162.733 182.958 166.479 185.665 170.655 185.522C177.218 185.296 178.978 182.244 178.586 179.5C178.242 177.091 177.524 175.586 176.716 173.892C176.185 172.78 175.615 171.586 175.086 170C174.916 169.489 175.326 169.791 175.981 170.272C177.247 171.204 179.427 172.807 180.086 170.5C180.855 167.808 173.253 163 169.086 161C168.363 159.191 166.437 155.212 165.249 153.261C165.142 153.085 165.044 152.905 164.963 152.716C162.547 147.111 161.082 141.23 159.919 136.56C159.438 134.632 159.009 132.91 158.586 131.5C157.257 127.071 152.79 121.464 148.659 118.157C147.696 117.386 147.041 116.274 146.911 115.048C145.819 104.714 142.581 100.162 140.491 97.2774C139.9 96.4618 139.679 95.4478 139.82 94.4506C142.003 79.0623 139.435 66.7922 127.086 61.5C125.592 60.8598 124.18 60.2575 122.845 59.6883C105.417 52.2562 101.22 50.4665 101.586 43.5C101.689 41.5423 102.724 38.9407 103.568 36.8168C104.018 35.686 104.414 34.6906 104.586 34C104.813 33.0931 105.467 32.41 106.209 31.6355C107.513 30.2751 109.086 28.6328 109.086 25C109.086 22.3387 108.596 21.3994 108.149 20.5439C107.639 19.5668 107.186 18.6991 107.586 15.5C108.584 7.51604 99.1243 0.0300755 90.1404 9.03849e-05V0C90.1313 0 90.1223 7.5376e-06 90.1133 2.26057e-05C90.1043 7.53765e-06 90.0952 0 90.0862 0V9.03849e-05C81.1023 0.0300755 71.6424 7.51604 72.6404 15.5C73.0402 18.6991 72.5873 19.5668 72.0772 20.5439C71.6307 21.3994 71.1404 22.3387 71.1404 25C71.1404 28.6328 72.7138 30.2751 74.0172 31.6355C74.7592 32.41 75.4136 33.0931 75.6404 34C75.813 34.6906 76.2088 35.686 76.6584 36.8168C77.5029 38.9407 78.5373 41.5423 78.6404 43.5C79.007 50.4665 74.81 52.2562 57.3813 59.6883C56.0465 60.2575 54.6342 60.8598 53.1404 61.5Z" fill="#1b1b1b"></path>
               
                <a class="Legs" href="{{ path('app_muscleGroup_details', {'id': 7}) }}">
                    <g>
                        <path class="Glutes - gluteus maximus" d="M89 187.451V167.566C89 167.522 88.9942 167.479 88.9823 167.436C85.9206 156.47 65.6094 148.741 63.5 165.5C63.5 173.5 64 185 64.5 187.5C68.9919 201.974 86.9355 197.018 88.9891 187.551C88.9964 187.517 89 187.486 89 187.451Z" fill="#EAAD43"></path>
                
                        <path class="Glutes - gluteus maximus" d="M91 187.451V167.566C91 167.522 91.0058 167.479 91.0177 167.436C94.0794 156.47 114.391 148.741 116.5 165.5C116.5 173.5 116 185 115.5 187.5C111.008 201.974 93.0645 197.018 91.0109 187.551C91.0036 187.517 91 187.486 91 187.451Z" fill="#EAAD43"></path>
                        
                        <path class="Glutes - gluteus medius" d="M62.0001 184.5C61.9848 183.776 61.6877 179.904 61.5589 176.337C61.5387 175.778 60.7461 175.647 60.5673 176.177C58.6178 181.959 56.0035 190.708 56.3785 191.462C56.4209 191.547 56.525 191.458 56.5754 191.377C58.1302 188.889 62.0228 185.571 62.0001 184.5Z" fill="#EACA1E"></path>
            
                        <path class="Glutes - gluteus medius" d="M118 184.5C118.015 183.776 118.313 179.904 118.441 176.337C118.462 175.778 119.254 175.647 119.433 176.177C121.382 181.959 123.997 190.708 123.622 191.462C123.579 191.547 123.475 191.458 123.425 191.377C121.87 188.889 117.977 185.571 118 184.5Z" fill="#EACA1E"></path>
            
                    </g>
            
                    <g>   
                        <path class="Adductors" d="M78.5 198C82.1378 197.192 84.4686 196.383 86.0206 195.311C86.3945 195.052 86.969 195.319 86.9504 195.773C86.4604 207.767 85.5333 213.762 83.7795 223.89C83.6954 224.375 83.0493 224.459 82.8681 224C78.8629 213.868 77.571 198.206 78.5 198Z" fill="#1B76F8"></path>
                
                        <path class="Adductors" d="M101.5 198C97.8622 197.192 95.5314 196.383 93.9794 195.311C93.6055 195.052 93.031 195.319 93.0496 195.773C93.5396 207.767 94.4667 213.762 96.2205 223.89C96.3046 224.375 96.9507 224.459 97.1319 224C101.137 213.868 102.429 198.206 101.5 198Z" fill="#1B76F8"></path>
                    </g>
            
                    <g>
                        <path class="Hamstring - Biceps Femori" d="M75.9259 198.171C74.3228 198.117 72.767 197.863 71.8133 197.595C71.6218 197.542 71.4197 197.584 71.3047 197.746C67.8678 202.596 67.0185 231.766 68.0001 246C68.7967 257.55 74.0576 260.275 76.26 270.137C76.3621 270.594 76.9576 270.696 77.1471 270.268C81.193 261.123 82.9815 236.882 83 229.12C83.0002 229.037 82.9795 228.962 82.9397 228.889C77.35 218.543 76.1699 202.714 76.4626 198.784C76.486 198.469 76.2413 198.182 75.9259 198.171Z" fill="#8E4CED"></path>
                
                        <path class="Hamstring - Biceps Femori" d="M104.074 198.171C105.677 198.117 107.233 197.863 108.187 197.595C108.378 197.542 108.581 197.584 108.696 197.746C112.132 202.596 112.982 231.766 112 246C111.204 257.55 105.943 260.275 103.74 270.137C103.638 270.594 103.043 270.696 102.853 270.268C98.8072 261.123 97.0188 236.882 97.0002 229.12C97 229.037 97.0208 228.962 97.0605 228.889C102.65 218.543 103.83 202.714 103.538 198.784C103.514 198.469 103.759 198.182 104.074 198.171Z" fill="#8E4CED"></path>
            
                        <path class="Hamstring - Semimembranosus/Semitendinosus" d="M69.0866 196.558C68.2409 196.092 67.6146 195.618 66.9897 195.006C66.7438 194.765 66.3328 194.814 66.1739 195.12C61.9931 203.157 55.4985 219.26 55.6612 230.207C55.7849 238.527 61.2993 247.033 59.031 259.712C58.9384 260.23 59.5892 260.551 59.9047 260.13C62.6959 256.408 66.2322 250.104 65.8521 242.053C64.8214 220.22 67.0512 203.174 69.3276 197.203C69.4211 196.958 69.3164 196.685 69.0866 196.558Z" fill="#5813BB"></path>
                
                        <path class="Hamstring - Semimembranosus/Semitendinosus" d="M110.914 196.558C111.759 196.092 112.386 195.618 113.011 195.006C113.256 194.765 113.667 194.814 113.826 195.12C118.007 203.157 124.502 219.26 124.339 230.207C124.215 238.527 118.701 247.033 120.969 259.712C121.062 260.23 120.411 260.551 120.096 260.13C117.304 256.408 113.768 250.104 114.148 242.053C115.179 220.22 112.949 203.174 110.673 197.203C110.579 196.958 110.684 196.685 110.914 196.558Z" fill="#5813BB"></path>
                
                        <path class="Abductor" d="M64.8711 192.703C63.9935 191.316 63.3384 189.712 63.0339 188.385C62.9398 187.974 62.4106 187.791 62.1156 188.092C53.2068 197.168 53.7464 205.221 54.5684 223.113C55.3974 212.336 62.1062 198.115 64.8891 193.228C64.9835 193.062 64.973 192.865 64.8711 192.703Z" fill="#1359BB"></path>
                
                        <path class="Abductor" d="M115.129 192.703C116.007 191.316 116.662 189.712 116.966 188.385C117.06 187.974 117.59 187.791 117.885 188.092C126.793 197.168 126.254 205.221 125.432 223.113C124.603 212.336 117.894 198.115 115.111 193.228C115.017 193.062 115.027 192.865 115.129 192.703Z" fill="#1359BB"></path>
                    </g>
            
                    <g>
                        <path class="Calves - Gastrocnemius" d="M79.5001 295.5C76.12 273.288 71.8072 260.869 68.3632 259.143C68.1574 259.04 67.9216 259.134 67.8488 259.353C66.1881 264.337 69.5001 296.887 69.5001 311C69.5001 316.5 74.3736 324.838 76.0001 320.5C77.5001 316.5 80.7125 303.467 79.5001 295.5Z" fill="#226A1A"></path>
                
                        <path class="Calves - Gastrocnemius" d="M100.5 295.5C103.88 273.288 108.193 260.869 111.637 259.143C111.843 259.04 112.079 259.134 112.152 259.353C113.812 264.337 110.5 296.887 110.5 311C110.5 316.5 105.627 324.838 104 320.5C102.5 316.5 99.288 303.467 100.5 295.5Z" fill="#226A1A"></path>
                
                        <path class="Calves - Gastrocnemius" d="M67.5002 307C68.0002 311 67.5002 320.682 61.0002 319.5C54.5002 318.318 54.3861 297 55.0002 286C55.7632 272.331 58.0494 264.023 63.9124 259.074C63.97 259.025 64.0427 258.98 64.1142 259.004C65.9624 259.612 65.0491 287.391 67.5002 307Z" fill="#0A4B03"></path>
                
                        <path class="Calves - Gastrocnemius" d="M112.5 307C112 311 112.5 320.682 119 319.5C125.5 318.318 125.614 297 125 286C124.237 272.331 121.951 264.023 116.088 259.074C116.031 259.025 115.958 258.98 115.886 259.004C114.038 259.612 114.951 287.391 112.5 307Z" fill="#0A4B03"></path>
                
                        <path class="Calves - Soleus" d="M61.0002 321.5C60.1683 321.5 59.4389 321.09 58.8974 320.696C58.5455 320.44 58.1951 320.684 58.3133 321.102C63.6805 340.123 64.4093 349.036 63.6584 355.341C63.6063 355.778 64.0389 356.006 64.2597 355.626C67.8315 349.469 62.4901 321.5 61.0002 321.5Z" fill="#54EA43"></path>
                
                        <path class="Calves - Soleus" d="M119 321.5C119.832 321.5 120.562 321.09 121.103 320.696C121.455 320.44 121.805 320.684 121.687 321.102C116.32 340.123 115.591 349.036 116.342 355.341C116.394 355.778 115.962 356.006 115.741 355.626C112.169 349.469 117.51 321.5 119 321.5Z" fill="#54EA43"></path>
                    </g>
                </a>
        
    </svg>
