<svg>
    <a href="{{ path('app_muscleGroup_details', {'id': 1}) }}" class="Chest">
        <g>
            <path fill="#7F8097" d="M90.07 75v20.5c0 .276-.22.5-.497.503-3.26.03-10.191.359-15.503 1.497-7 1.5-11.5-2-13.5-5.5-1.493-2.612-5.008-3.338-7.192-3.474-.371-.023-.595-.407-.395-.72.966-1.502 3.14-4.534 4.587-7.306 6.29-12.045 12.9-14.197 16-14 2.22.142 11.1 2.8 13.5 4 2.4 1.2 3 3.5 3 4.5z" class="Pec"></path>
            <path fill="#7F8097" d="M92.07 75v20.5c0 .276.221.5.497.503 3.26.03 10.191.359 15.503 1.497 7 1.5 11.5-2 13.5-5.5 1.493-2.612 5.008-3.338 7.193-3.474.371-.023.595-.407.394-.72-.965-1.502-3.139-4.534-4.587-7.306-6.29-12.045-12.9-14.197-16-14-2.219.142-11.1 2.8-13.5 4-2.4 1.2-3 3.5-3 4.5z" class="Pec"></path>
        </g>
    </a>

    <a href="{{ path('app_muscleGroup_details', {'id': 4}) }}" fill="#18459f" class="Shoulders - Front">
        <g>
            <path fill="#7F8097" d="M54.07 82.5c4.817-9.635 10.42-14.834 13.77-16.51.413-.207.44-.863.015-1.043-16.6-7.059-28.91 8.22-24.922 28.873a.48.48 0 00.724.325c3.453-2.192 8.05-6.918 10.413-11.645z" class="Shoulder"></path>
            <path fill="#7F8097" d="M128.07 82.5c-4.817-9.635-10.419-14.834-13.77-16.51-.413-.207-.439-.863-.015-1.043 16.6-7.059 28.911 8.22 24.922 28.873a.48.48 0 01-.724.325c-3.452-2.192-8.05-6.918-10.413-11.645z" class="Shoulder"></path>
        </g>
    </a>

    <a href="{{ path('app_muscleGroup_details', {'id': 3}) }}" class="Biceps">
        <g>
            <path fill="#7F8097" d="M45.036 96.517c-6.712 3.34-13.664 30.128-3.966 28.483 2.822-.413 13.5-10.5 13-21-.5-3 3.682-10.874 1.5-12-4.181-2.158-5.991 1.333-10.467 4.477a.507.507 0 01-.067.04z" class="Bicep"></path>
            <path fill="#7F8097" d="M137.104 96.517c6.713 3.34 13.664 30.128 3.966 28.483-2.822-.413-13.5-10.5-13-21 .5-3-3.682-10.874-1.5-12 4.182-2.158 5.991 1.333 10.467 4.477a.59.59 0 00.067.04z" class="Bicep"></path>
        </g>
    </a>
</svg>